<svg width="77" height="117" viewBox="0 0 77 117" fill="none" xmlns="http://www.w3.org/2000/svg">
<g clip-path="url(#clip0)">
<path d="M60.127 20.174L60.1811 19.625H59.6294H17.3706H16.8075L16.8741 20.1841L17.8861 28.6833L17.9386 29.1242H18.3826H37.3892L18.9357 37.0413L18.6073 37.1821L18.6342 37.5384L19.2624 45.858L19.2958 46.3014V46.3188L19.2971 46.3188L19.3192 46.6102L19.8816 46.3206L48.2818 46.4085L47.6876 56.5971L38.615 59.2276L29.9142 56.9619L29.3846 50.4338L29.3473 49.9742H28.8862H20.3542H19.8104L19.8559 50.5161L20.9726 63.795L21.001 64.1328L21.3252 64.2315L38.5638 69.4783L38.7086 69.5224L38.8535 69.4788L55.9873 64.3217L56.3127 64.2238L56.3414 63.8852L58.5748 37.543L58.6207 37.0008H58.0766H41.0098L58.9934 29.0818L59.2609 28.9641L59.2895 28.6733L60.127 20.174ZM11.5597 76.5028L5.54464 6.25H71.4554L65.4403 76.5028L38.5 85.7215L11.5597 76.5028Z" fill="#789CF9" stroke="black"/>
</g>
<path d="M32.8486 111.939C32.6904 113.293 32.1895 114.339 31.3457 115.077C30.5078 115.81 29.3916 116.176 27.9971 116.176C26.4853 116.176 25.2725 115.634 24.3584 114.55C23.4502 113.466 22.9961 112.016 22.9961 110.199V108.969C22.9961 107.779 23.207 106.733 23.6289 105.831C24.0566 104.929 24.6602 104.237 25.4395 103.757C26.2187 103.271 27.1211 103.027 28.1465 103.027C29.5059 103.027 30.5957 103.408 31.416 104.17C32.2363 104.926 32.7139 105.975 32.8486 107.316H31.1523C31.0059 106.297 30.6865 105.559 30.1943 105.102C29.708 104.645 29.0254 104.416 28.1465 104.416C27.0684 104.416 26.2217 104.814 25.6064 105.611C24.9971 106.408 24.6924 107.542 24.6924 109.013V110.252C24.6924 111.641 24.9824 112.745 25.5625 113.565C26.1426 114.386 26.9541 114.796 27.9971 114.796C28.9346 114.796 29.6523 114.585 30.1504 114.163C30.6543 113.735 30.9883 112.994 31.1523 111.939H32.8486ZM38.9307 110.296C37.4834 109.88 36.4287 109.37 35.7666 108.767C35.1103 108.157 34.7822 107.407 34.7822 106.517C34.7822 105.509 35.1836 104.677 35.9863 104.021C36.7949 103.358 37.8437 103.027 39.1328 103.027C40.0117 103.027 40.7939 103.197 41.4795 103.537C42.1709 103.877 42.7041 104.346 43.0791 104.943C43.46 105.541 43.6504 106.194 43.6504 106.903H41.9541C41.9541 106.13 41.708 105.523 41.2158 105.084C40.7236 104.639 40.0293 104.416 39.1328 104.416C38.3008 104.416 37.6504 104.601 37.1816 104.97C36.7187 105.333 36.4873 105.84 36.4873 106.49C36.4873 107.012 36.707 107.454 37.1465 107.817C37.5918 108.175 38.3447 108.503 39.4053 108.802C40.4717 109.101 41.3037 109.432 41.9014 109.795C42.5049 110.152 42.9502 110.571 43.2373 111.052C43.5303 111.532 43.6768 112.098 43.6768 112.748C43.6768 113.785 43.2725 114.617 42.4639 115.244C41.6553 115.865 40.5742 116.176 39.2207 116.176C38.3418 116.176 37.5215 116.009 36.7598 115.675C35.998 115.335 35.4092 114.872 34.9932 114.286C34.583 113.7 34.3779 113.035 34.3779 112.291H36.0742C36.0742 113.064 36.3584 113.677 36.9268 114.128C37.501 114.573 38.2656 114.796 39.2207 114.796C40.1113 114.796 40.7939 114.614 41.2686 114.251C41.7432 113.888 41.9805 113.393 41.9805 112.766C41.9805 112.139 41.7607 111.655 41.3213 111.315C40.8818 110.97 40.085 110.63 38.9307 110.296ZM49.6182 110.296C48.1709 109.88 47.1162 109.37 46.4541 108.767C45.7978 108.157 45.4697 107.407 45.4697 106.517C45.4697 105.509 45.8711 104.677 46.6738 104.021C47.4824 103.358 48.5312 103.027 49.8203 103.027C50.6992 103.027 51.4814 103.197 52.167 103.537C52.8584 103.877 53.3916 104.346 53.7666 104.943C54.1475 105.541 54.3379 106.194 54.3379 106.903H52.6416C52.6416 106.13 52.3955 105.523 51.9033 105.084C51.4111 104.639 50.7168 104.416 49.8203 104.416C48.9883 104.416 48.3379 104.601 47.8691 104.97C47.4062 105.333 47.1748 105.84 47.1748 106.49C47.1748 107.012 47.3945 107.454 47.834 107.817C48.2793 108.175 49.0322 108.503 50.0928 108.802C51.1592 109.101 51.9912 109.432 52.5889 109.795C53.1924 110.152 53.6377 110.571 53.9248 111.052C54.2178 111.532 54.3643 112.098 54.3643 112.748C54.3643 113.785 53.96 114.617 53.1514 115.244C52.3428 115.865 51.2617 116.176 49.9082 116.176C49.0293 116.176 48.209 116.009 47.4473 115.675C46.6855 115.335 46.0967 114.872 45.6807 114.286C45.2705 113.7 45.0654 113.035 45.0654 112.291H46.7617C46.7617 113.064 47.0459 113.677 47.6143 114.128C48.1885 114.573 48.9531 114.796 49.9082 114.796C50.7988 114.796 51.4814 114.614 51.9561 114.251C52.4307 113.888 52.668 113.393 52.668 112.766C52.668 112.139 52.4482 111.655 52.0088 111.315C51.5693 110.97 50.7725 110.63 49.6182 110.296Z" fill="black"/>
<defs>
<clipPath id="clip0">
<rect width="67" height="92" fill="white" transform="translate(5)"/>
</clipPath>
</defs>
</svg>
