<svg width="107" height="119" viewBox="0 0 107 119" fill="none" xmlns="http://www.w3.org/2000/svg">
<path d="M37.0381 109.349H31.668V115H29.9805V102.203H37.9082V103.592H31.668V107.969H37.0381V109.349ZM41.4414 115H39.8154V105.49H41.4414V115ZM39.6836 102.968C39.6836 102.704 39.7627 102.481 39.9209 102.3C40.085 102.118 40.3252 102.027 40.6416 102.027C40.958 102.027 41.1982 102.118 41.3623 102.3C41.5264 102.481 41.6084 102.704 41.6084 102.968C41.6084 103.231 41.5264 103.451 41.3623 103.627C41.1982 103.803 40.958 103.891 40.6416 103.891C40.3252 103.891 40.085 103.803 39.9209 103.627C39.7627 103.451 39.6836 103.231 39.6836 102.968ZM43.665 110.166C43.665 108.684 44.0078 107.506 44.6934 106.633C45.3789 105.754 46.2871 105.314 47.418 105.314C48.5781 105.314 49.4834 105.725 50.1338 106.545L50.2129 105.49H51.6982V114.771C51.6982 116.002 51.332 116.972 50.5996 117.681C49.873 118.39 48.8945 118.744 47.6641 118.744C46.9785 118.744 46.3076 118.598 45.6514 118.305C44.9951 118.012 44.4941 117.61 44.1484 117.101L44.9922 116.125C45.6895 116.986 46.542 117.417 47.5498 117.417C48.3408 117.417 48.9561 117.194 49.3955 116.749C49.8408 116.304 50.0635 115.677 50.0635 114.868V114.051C49.4131 114.801 48.5254 115.176 47.4004 115.176C46.2871 115.176 45.3848 114.728 44.6934 113.831C44.0078 112.935 43.665 111.713 43.665 110.166ZM45.2998 110.351C45.2998 111.423 45.5195 112.267 45.959 112.882C46.3984 113.491 47.0137 113.796 47.8047 113.796C48.8301 113.796 49.583 113.33 50.0635 112.398V108.057C49.5654 107.148 48.8184 106.694 47.8223 106.694C47.0312 106.694 46.4131 107.002 45.9678 107.617C45.5225 108.232 45.2998 109.144 45.2998 110.351ZM55.6885 105.49L55.7324 106.545C56.4297 105.725 57.3701 105.314 58.5537 105.314C59.8838 105.314 60.7891 105.824 61.2695 106.844C61.5859 106.387 61.9961 106.018 62.5 105.736C63.0098 105.455 63.6103 105.314 64.3018 105.314C66.3877 105.314 67.4482 106.419 67.4834 108.628V115H65.8574V108.725C65.8574 108.045 65.7021 107.538 65.3916 107.204C65.0811 106.864 64.5596 106.694 63.8271 106.694C63.2236 106.694 62.7227 106.876 62.3242 107.239C61.9258 107.597 61.6943 108.08 61.6299 108.689V115H59.9951V108.769C59.9951 107.386 59.3184 106.694 57.9648 106.694C56.8984 106.694 56.1689 107.148 55.7764 108.057V115H54.1504V105.49H55.6885ZM75.8154 115C75.7217 114.812 75.6455 114.479 75.5869 113.998C74.8311 114.783 73.9287 115.176 72.8799 115.176C71.9424 115.176 71.1719 114.912 70.5684 114.385C69.9707 113.852 69.6719 113.178 69.6719 112.363C69.6719 111.373 70.0469 110.605 70.7969 110.061C71.5527 109.51 72.6133 109.234 73.9785 109.234H75.5605V108.487C75.5605 107.919 75.3906 107.468 75.0508 107.134C74.7109 106.794 74.21 106.624 73.5478 106.624C72.9678 106.624 72.4814 106.771 72.0889 107.063C71.6963 107.356 71.5 107.711 71.5 108.127H69.8652C69.8652 107.652 70.0322 107.195 70.3662 106.756C70.7061 106.311 71.1631 105.959 71.7373 105.701C72.3174 105.443 72.9531 105.314 73.6445 105.314C74.7402 105.314 75.5986 105.59 76.2197 106.141C76.8408 106.686 77.1631 107.438 77.1865 108.399V112.776C77.1865 113.649 77.2978 114.344 77.5205 114.859V115H75.8154ZM73.1172 113.761C73.6269 113.761 74.1103 113.629 74.5674 113.365C75.0244 113.102 75.3555 112.759 75.5605 112.337V110.386H74.2861C72.2939 110.386 71.2978 110.969 71.2978 112.135C71.2978 112.645 71.4678 113.043 71.8076 113.33C72.1475 113.617 72.584 113.761 73.1172 113.761Z" fill="black"/>
<path d="M80.7522 28.3389C84.7962 28.3389 88.6745 26.846 91.534 24.1887C94.3935 21.5315 96 17.9274 96 14.1694C96 10.4115 94.3935 6.80742 91.534 4.15013C88.6745 1.49285 84.7962 0 80.7522 0L50.2567 0C46.2151 0 42.3391 1.49197 39.4812 4.1477C36.6234 6.80343 35.0179 10.4054 35.0179 14.1611C35.0179 17.9169 36.6234 21.5188 39.4812 24.1746C42.3391 26.8303 46.2151 28.3223 50.2567 28.3223C46.2127 28.3223 42.3344 29.8151 39.4749 32.4724C36.6154 35.1297 35.0089 38.7337 35.0089 42.4917C35.0089 46.2497 36.6154 49.8537 39.4749 52.511C42.3344 55.1683 46.2127 56.6611 50.2567 56.6611C47.241 56.6595 44.2925 57.4889 41.784 59.0445C39.2755 60.6001 37.3198 62.812 36.1641 65.4005C35.0084 67.989 34.7046 70.8378 35.2912 73.5867C35.8779 76.3357 37.3285 78.8612 39.4597 80.844C41.5908 82.8268 44.3069 84.1778 47.2643 84.7261C50.2218 85.2745 53.2877 84.9955 56.0746 83.9246C58.8614 82.8537 61.2439 81.0388 62.9209 78.7096C64.5978 76.3803 65.4938 73.6413 65.4955 70.8389V28.3389H80.7522ZM80.7522 28.3389C77.7383 28.3389 74.792 29.1694 72.286 30.7254C69.78 32.2815 67.8268 34.4932 66.6734 37.0808C65.52 39.6684 65.2182 42.5157 65.8062 45.2627C66.3942 48.0097 67.8456 50.533 69.9768 52.5134C72.1079 54.4939 74.8232 55.8426 77.7793 56.389C80.7353 56.9354 83.7993 56.655 86.5839 55.5832C89.3684 54.5114 91.7484 52.6963 93.4229 50.3675C95.0973 48.0387 95.9911 45.3008 95.9911 42.5C95.9906 38.7444 94.3849 35.1427 91.5272 32.4871C88.6695 29.8314 84.7937 28.3393 80.7522 28.3389Z" fill="black"/>
</svg>
