<svg width="37" height="36" viewBox="0 0 37 36" fill="none" xmlns="http://www.w3.org/2000/svg">
<rect x="0.822205" width="35.3556" height="35.1953" rx="17.5976" fill="white"/>
<rect x="0.822205" width="35.3556" height="35.1953" rx="17.5976" stroke="black"/>
<path d="M12.3756 29.0826C12.3756 29.2294 12.204 29.3469 11.9877 29.3469C11.7415 29.3689 11.57 29.2514 11.57 29.0826C11.57 28.9357 11.7415 28.8182 11.9579 28.8182C12.1817 28.7962 12.3756 28.9137 12.3756 29.0826ZM10.0556 28.7521C10.0034 28.899 10.1526 29.0679 10.3764 29.1119C10.5704 29.1854 10.7942 29.1119 10.8389 28.9651C10.8837 28.8182 10.7419 28.6493 10.5181 28.5833C10.3242 28.5319 10.1079 28.6053 10.0556 28.7521ZM13.3528 28.6273C13.1365 28.6787 12.9873 28.8182 13.0097 28.9871C13.0321 29.134 13.226 29.2294 13.4498 29.178C13.6661 29.1266 13.8153 28.9871 13.7929 28.8403C13.7706 28.7007 13.5692 28.6053 13.3528 28.6273ZM18.2613 0.489826C7.91472 0.489826 0 8.22176 0 18.4062C0 26.5493 5.20686 33.5176 12.6442 35.9701C13.599 36.139 13.9347 35.5589 13.9347 35.0816C13.9347 34.6264 13.9123 32.1151 13.9123 30.5731C13.9123 30.5731 8.69052 31.6746 7.59395 28.385C7.59395 28.385 6.74355 26.2483 5.52016 25.6975C5.52016 25.6975 3.8119 24.5447 5.63952 24.5668C5.63952 24.5668 7.49698 24.7136 8.51895 26.4612C10.1526 29.2955 12.8903 28.4805 13.9571 27.9958C14.1286 26.821 14.6135 26.0059 15.1506 25.5213C10.9806 25.0661 6.77339 24.4713 6.77339 17.4076C6.77339 15.3883 7.34032 14.375 8.53387 13.0827C8.33992 12.6054 7.70585 10.6375 8.72782 8.09693C10.2869 7.61965 13.875 10.0795 13.875 10.0795C15.3669 9.66829 16.9708 9.45535 18.5597 9.45535C20.1486 9.45535 21.7524 9.66829 23.2444 10.0795C23.2444 10.0795 26.8325 7.61231 28.3915 8.09693C29.4135 10.6449 28.7794 12.6054 28.5855 13.0827C29.779 14.3823 30.5101 15.3956 30.5101 17.4076C30.5101 24.4933 26.1163 25.0587 21.9464 25.5213C22.6327 26.1014 23.2145 27.2028 23.2145 28.9284C23.2145 31.4029 23.1921 34.4648 23.1921 35.0669C23.1921 35.5442 23.5353 36.1243 24.4827 35.9554C31.9423 33.5176 37 26.5493 37 18.4062C37 8.22176 28.6079 0.489826 18.2613 0.489826ZM7.25081 25.815C7.15383 25.8885 7.17621 26.0573 7.30302 26.1969C7.42238 26.3143 7.59395 26.3657 7.69093 26.2703C7.7879 26.1969 7.76552 26.028 7.63871 25.8885C7.51936 25.771 7.34778 25.7196 7.25081 25.815ZM6.44516 25.2203C6.39294 25.3157 6.46754 25.4332 6.61673 25.5066C6.73609 25.5801 6.88528 25.558 6.9375 25.4552C6.98972 25.3598 6.91512 25.2423 6.76593 25.1689C6.61673 25.1248 6.49738 25.1468 6.44516 25.2203ZM8.8621 27.8343C8.74274 27.9298 8.7875 28.15 8.95907 28.2895C9.13065 28.4584 9.34698 28.4805 9.44395 28.363C9.54093 28.2675 9.49617 28.0472 9.34698 27.9077C9.18286 27.7388 8.95907 27.7168 8.8621 27.8343ZM8.01169 26.7549C7.89234 26.8283 7.89234 27.0192 8.01169 27.1881C8.13105 27.357 8.33246 27.4304 8.42944 27.357C8.54879 27.2616 8.54879 27.0706 8.42944 26.9018C8.325 26.7329 8.13105 26.6595 8.01169 26.7549Z" fill="black"/>
</svg>
