<svg width="129" height="125" viewBox="0 0 129 125" fill="none" xmlns="http://www.w3.org/2000/svg">
<path d="M26.9395 124V111.203H30.5518C31.665 111.203 32.6494 111.449 33.5049 111.941C34.3603 112.434 35.0195 113.134 35.4824 114.042C35.9512 114.95 36.1885 115.993 36.1943 117.171V117.988C36.1943 119.195 35.96 120.253 35.4912 121.161C35.0283 122.069 34.3633 122.767 33.4961 123.253C32.6348 123.739 31.6299 123.988 30.4814 124H26.9395ZM28.627 112.592V122.62H30.4023C31.7031 122.62 32.7139 122.216 33.4346 121.407C34.1611 120.599 34.5244 119.447 34.5244 117.953V117.206C34.5244 115.753 34.1816 114.625 33.4961 113.822C32.8164 113.014 31.8496 112.604 30.5957 112.592H28.627ZM38.0664 119.157C38.0664 118.226 38.248 117.388 38.6113 116.644C38.9805 115.899 39.4902 115.325 40.1406 114.921C40.7969 114.517 41.5439 114.314 42.3818 114.314C43.6768 114.314 44.7227 114.763 45.5195 115.659C46.3223 116.556 46.7236 117.748 46.7236 119.236V119.351C46.7236 120.276 46.5449 121.108 46.1875 121.847C45.8359 122.579 45.3291 123.15 44.667 123.561C44.0107 123.971 43.2549 124.176 42.3994 124.176C41.1103 124.176 40.0645 123.728 39.2617 122.831C38.4648 121.935 38.0664 120.748 38.0664 119.271V119.157ZM39.7012 119.351C39.7012 120.405 39.9443 121.252 40.4307 121.891C40.9228 122.529 41.5791 122.849 42.3994 122.849C43.2256 122.849 43.8818 122.526 44.3682 121.882C44.8545 121.231 45.0977 120.323 45.0977 119.157C45.0977 118.114 44.8486 117.271 44.3506 116.626C43.8584 115.976 43.2021 115.65 42.3818 115.65C41.5791 115.65 40.9316 115.97 40.4395 116.608C39.9473 117.247 39.7012 118.161 39.7012 119.351ZM52.5771 122.849C53.1572 122.849 53.6641 122.673 54.0977 122.321C54.5312 121.97 54.7715 121.53 54.8184 121.003H56.3564C56.3271 121.548 56.1396 122.066 55.7939 122.559C55.4482 123.051 54.9853 123.443 54.4053 123.736C53.8311 124.029 53.2217 124.176 52.5771 124.176C51.2822 124.176 50.251 123.745 49.4834 122.884C48.7217 122.017 48.3408 120.833 48.3408 119.333V119.061C48.3408 118.135 48.5107 117.312 48.8506 116.591C49.1904 115.87 49.6768 115.311 50.3096 114.912C50.9482 114.514 51.7012 114.314 52.5684 114.314C53.6348 114.314 54.5195 114.634 55.2227 115.272C55.9316 115.911 56.3096 116.74 56.3564 117.76H54.8184C54.7715 117.145 54.5371 116.641 54.1152 116.248C53.6992 115.85 53.1836 115.65 52.5684 115.65C51.7422 115.65 51.1006 115.949 50.6436 116.547C50.1924 117.139 49.9668 117.997 49.9668 119.122V119.43C49.9668 120.525 50.1924 121.369 50.6436 121.961C51.0947 122.553 51.7393 122.849 52.5771 122.849ZM60.8389 119.597L59.8193 120.66V124H58.1934V110.5H59.8193V118.665L60.6894 117.619L63.6514 114.49H65.6289L61.9287 118.463L66.0596 124H64.1523L60.8389 119.597ZM71.0781 124.176C69.7891 124.176 68.7402 123.754 67.9316 122.91C67.123 122.061 66.7187 120.927 66.7187 119.509V119.21C66.7187 118.267 66.8975 117.426 67.2549 116.687C67.6182 115.943 68.1221 115.363 68.7666 114.947C69.417 114.525 70.1201 114.314 70.876 114.314C72.1123 114.314 73.0732 114.722 73.7588 115.536C74.4443 116.351 74.7871 117.517 74.7871 119.034V119.711H68.3447C68.3682 120.648 68.6406 121.407 69.1621 121.987C69.6894 122.562 70.3574 122.849 71.166 122.849C71.7402 122.849 72.2266 122.731 72.625 122.497C73.0234 122.263 73.3721 121.952 73.6709 121.565L74.6641 122.339C73.8672 123.563 72.6719 124.176 71.0781 124.176ZM70.876 115.65C70.2197 115.65 69.6689 115.891 69.2236 116.371C68.7783 116.846 68.5029 117.514 68.3975 118.375H73.1611V118.252C73.1143 117.426 72.8916 116.787 72.4932 116.336C72.0947 115.879 71.5557 115.65 70.876 115.65ZM81.2734 115.949C81.0273 115.908 80.7607 115.888 80.4736 115.888C79.4072 115.888 78.6836 116.342 78.3027 117.25V124H76.6768V114.49H78.2588L78.2852 115.589C78.8184 114.739 79.5742 114.314 80.5527 114.314C80.8691 114.314 81.1094 114.355 81.2734 114.437V115.949Z" fill="black"/>
<path d="M112.64 35.0696L112.575 34.526C111.984 29.6388 109.591 25.3651 105.178 21.4912L103.061 19.8909L101.63 22.3407L112.64 35.0696ZM112.64 35.0696L113.176 34.9549M112.64 35.0696L113.176 34.9549M113.176 34.9549C115.465 34.4646 118.113 34.3966 120.514 34.7024C122.929 35.0101 125.02 35.6867 126.244 36.6249L126.548 36.2284L126.245 36.6259L128.387 38.2571C128.352 38.3399 128.315 38.428 128.276 38.5204C127.846 39.5327 127.203 41.0456 126.991 41.449L126.984 41.461L126.979 41.4733C124.852 46.0974 121.735 48.4004 118.682 49.5502C115.609 50.7072 112.576 50.7059 110.611 50.6641L110.253 50.6565L110.131 50.9931C105.136 64.7253 97.3118 75.3455 87.1536 82.5341C76.9958 89.7224 64.4756 93.5 50.056 93.5C36.7813 93.5 26.6929 88.8747 19.9639 79.8148C13.1032 70.5573 10.4302 57.091 11.8834 46.6085H91.5878C95.8632 46.6934 99.1072 45.3168 100.778 44.2898L101.191 44.0359M113.176 34.9549L101.191 44.0359M101.191 44.0359L100.95 43.6152M101.191 44.0359L100.95 43.6152M100.95 43.6152C99.1944 40.5533 98.5252 36.6699 98.7223 32.8133M100.95 43.6152L98.7223 32.8133M98.7223 32.8133C98.9194 28.958 99.9799 25.1783 101.63 22.3414L98.7223 32.8133ZM75.0164 42.357H63.8301V30.8963H75.0164V42.357ZM63.8301 0.5H75.0164V12.2333H63.8301V0.5ZM89.4336 30.8754V42.336H78.2472V30.8754H89.4336ZM49.4314 27.3581V15.7506H60.6177V27.3581H49.4314ZM75.0164 15.7506V27.3581H63.8301V15.7506H75.0164ZM20.6524 42.336V30.8754H31.8388V42.336H20.6524ZM35.0327 42.336V30.8754H46.219V42.336H35.0327ZM49.4314 42.336V30.8754H60.6177V42.336H49.4314ZM35.0327 27.3581V15.7506H46.219V27.3581H35.0327Z" fill="#439EF2" stroke="black"/>
</svg>
