<svg width="77" height="116" viewBox="0 0 77 116" fill="none" xmlns="http://www.w3.org/2000/svg">
<g clip-path="url(#clip0)">
<path d="M58.7745 27.1705L59.2723 27.2177L60.04 19.1124L60.0918 18.5652H59.5422H17.4753H16.9281L16.9773 19.1102L19.2106 43.8508L19.2517 44.3059H19.7086H48.2772L47.319 53.9798L38.413 56.3218L29.5431 53.9806L28.9652 47.854L28.9225 47.401H28.4674H20.1448H19.6025L19.6464 47.9415L20.6933 60.8216L20.7218 61.1723L21.0616 61.2638L38.2827 65.9027L38.3466 65.9199H38.4128H38.6047H39.1047V65.7524L55.8159 61.2639L56.1514 61.1738L56.184 60.8279L58.5569 35.6115L58.6084 35.0646H58.0591H27.8798L27.2496 27.6705H58.7745V27.1705ZM11.5575 72.3189L5.54732 5.9375H71.4527L65.4425 72.3182L38.4132 81.037L11.5575 72.3189Z" fill="#DF8A0A" stroke="black"/>
</g>
<path d="M20.4121 115H18.7158V109.085H12.2646V115H10.5771V102.203H12.2646V107.705H18.7158V102.203H20.4121V115ZM31.9873 103.592H27.874V115H26.1953V103.592H22.0908V102.203H31.9873V103.592ZM36.0654 102.203L40.249 112.645L44.4326 102.203H46.6211V115H44.9336V110.017L45.0918 104.638L40.8906 115H39.5986L35.4062 104.664L35.5732 110.017V115H33.8857V102.203H36.0654ZM51.2969 113.62H57.3613V115H49.6006V102.203H51.2969V113.62ZM59.6113 108.584L60.2617 102.203H66.8184V103.706H61.6416L61.2549 107.195C61.8818 106.826 62.5937 106.642 63.3906 106.642C64.5566 106.642 65.4824 107.028 66.168 107.802C66.8535 108.569 67.1963 109.609 67.1963 110.922C67.1963 112.24 66.8389 113.28 66.124 114.042C65.415 114.798 64.4219 115.176 63.1445 115.176C62.0137 115.176 61.0908 114.862 60.376 114.235C59.6611 113.608 59.2539 112.741 59.1543 111.634H60.6924C60.792 112.366 61.0527 112.92 61.4746 113.295C61.8965 113.664 62.4531 113.849 63.1445 113.849C63.9004 113.849 64.4922 113.591 64.9199 113.075C65.3535 112.56 65.5703 111.848 65.5703 110.939C65.5703 110.084 65.3359 109.398 64.8672 108.883C64.4043 108.361 63.7861 108.101 63.0127 108.101C62.3037 108.101 61.7471 108.256 61.3428 108.566L60.9121 108.918L59.6113 108.584Z" fill="black"/>
<defs>
<clipPath id="clip0">
<rect width="67" height="87" fill="white" transform="translate(5)"/>
</clipPath>
</defs>
</svg>
