<svg width="107" height="119" viewBox="0 0 107 119" fill="none" xmlns="http://www.w3.org/2000/svg">
<path d="M18.0801 102.203H19.7764V111.265C19.7764 112.489 19.4072 113.447 18.6689 114.139C17.9365 114.83 16.958 115.176 15.7334 115.176C14.4619 115.176 13.4717 114.851 12.7627 114.2C12.0537 113.55 11.6992 112.639 11.6992 111.467H13.3867C13.3867 112.199 13.5859 112.771 13.9844 113.181C14.3887 113.591 14.9717 113.796 15.7334 113.796C16.4307 113.796 16.9932 113.576 17.4209 113.137C17.8545 112.697 18.0742 112.082 18.0801 111.291V102.203ZM28.2666 115C28.1728 114.812 28.0967 114.479 28.0381 113.998C27.2822 114.783 26.3799 115.176 25.3311 115.176C24.3936 115.176 23.623 114.912 23.0195 114.385C22.4219 113.852 22.123 113.178 22.123 112.363C22.123 111.373 22.498 110.605 23.248 110.061C24.0039 109.51 25.0645 109.234 26.4297 109.234H28.0117V108.487C28.0117 107.919 27.8418 107.468 27.502 107.134C27.1621 106.794 26.6611 106.624 25.999 106.624C25.4189 106.624 24.9326 106.771 24.54 107.063C24.1475 107.356 23.9512 107.711 23.9512 108.127H22.3164C22.3164 107.652 22.4834 107.195 22.8174 106.756C23.1572 106.311 23.6143 105.959 24.1885 105.701C24.7686 105.443 25.4043 105.314 26.0957 105.314C27.1914 105.314 28.0498 105.59 28.6709 106.141C29.292 106.686 29.6143 107.438 29.6377 108.399V112.776C29.6377 113.649 29.749 114.344 29.9717 114.859V115H28.2666ZM25.5684 113.761C26.0781 113.761 26.5615 113.629 27.0186 113.365C27.4756 113.102 27.8066 112.759 28.0117 112.337V110.386H26.7373C24.7451 110.386 23.749 110.969 23.749 112.135C23.749 112.645 23.9189 113.043 24.2588 113.33C24.5986 113.617 25.0352 113.761 25.5684 113.761ZM35.1836 112.794L37.5391 105.49H39.2002L35.79 115H34.5508L31.1055 105.49H32.7666L35.1836 112.794ZM46.4951 115C46.4014 114.812 46.3252 114.479 46.2666 113.998C45.5107 114.783 44.6084 115.176 43.5596 115.176C42.6221 115.176 41.8516 114.912 41.248 114.385C40.6504 113.852 40.3516 113.178 40.3516 112.363C40.3516 111.373 40.7266 110.605 41.4766 110.061C42.2324 109.51 43.293 109.234 44.6582 109.234H46.2402V108.487C46.2402 107.919 46.0703 107.468 45.7305 107.134C45.3906 106.794 44.8896 106.624 44.2275 106.624C43.6475 106.624 43.1611 106.771 42.7686 107.063C42.376 107.356 42.1797 107.711 42.1797 108.127H40.5449C40.5449 107.652 40.7119 107.195 41.0459 106.756C41.3857 106.311 41.8428 105.959 42.417 105.701C42.9971 105.443 43.6328 105.314 44.3242 105.314C45.4199 105.314 46.2783 105.59 46.8994 106.141C47.5205 106.686 47.8428 107.438 47.8662 108.399V112.776C47.8662 113.649 47.9775 114.344 48.2002 114.859V115H46.4951ZM43.7969 113.761C44.3066 113.761 44.79 113.629 45.2471 113.365C45.7041 113.102 46.0352 112.759 46.2402 112.337V110.386H44.9658C42.9736 110.386 41.9775 110.969 41.9775 112.135C41.9775 112.645 42.1475 113.043 42.4873 113.33C42.8271 113.617 43.2637 113.761 43.7969 113.761ZM54.4404 109.296C52.9932 108.88 51.9385 108.37 51.2764 107.767C50.6201 107.157 50.292 106.407 50.292 105.517C50.292 104.509 50.6934 103.677 51.4961 103.021C52.3047 102.358 53.3535 102.027 54.6426 102.027C55.5215 102.027 56.3037 102.197 56.9893 102.537C57.6807 102.877 58.2139 103.346 58.5889 103.943C58.9697 104.541 59.1602 105.194 59.1602 105.903H57.4639C57.4639 105.13 57.2178 104.523 56.7256 104.084C56.2334 103.639 55.5391 103.416 54.6426 103.416C53.8105 103.416 53.1602 103.601 52.6914 103.97C52.2285 104.333 51.9971 104.84 51.9971 105.49C51.9971 106.012 52.2168 106.454 52.6562 106.817C53.1016 107.175 53.8545 107.503 54.915 107.802C55.9814 108.101 56.8135 108.432 57.4111 108.795C58.0146 109.152 58.46 109.571 58.7471 110.052C59.04 110.532 59.1865 111.098 59.1865 111.748C59.1865 112.785 58.7822 113.617 57.9736 114.244C57.165 114.865 56.084 115.176 54.7305 115.176C53.8516 115.176 53.0312 115.009 52.2695 114.675C51.5078 114.335 50.9189 113.872 50.5029 113.286C50.0928 112.7 49.8877 112.035 49.8877 111.291H51.584C51.584 112.064 51.8682 112.677 52.4365 113.128C53.0107 113.573 53.7754 113.796 54.7305 113.796C55.6211 113.796 56.3037 113.614 56.7783 113.251C57.2529 112.888 57.4902 112.393 57.4902 111.766C57.4902 111.139 57.2705 110.655 56.8311 110.315C56.3916 109.97 55.5947 109.63 54.4404 109.296ZM64.917 113.849C65.4971 113.849 66.0039 113.673 66.4375 113.321C66.8711 112.97 67.1113 112.53 67.1582 112.003H68.6963C68.667 112.548 68.4795 113.066 68.1338 113.559C67.7881 114.051 67.3252 114.443 66.7451 114.736C66.1709 115.029 65.5615 115.176 64.917 115.176C63.6221 115.176 62.5908 114.745 61.8232 113.884C61.0615 113.017 60.6807 111.833 60.6807 110.333V110.061C60.6807 109.135 60.8506 108.312 61.1904 107.591C61.5303 106.87 62.0166 106.311 62.6494 105.912C63.2881 105.514 64.041 105.314 64.9082 105.314C65.9746 105.314 66.8594 105.634 67.5625 106.272C68.2715 106.911 68.6494 107.74 68.6963 108.76H67.1582C67.1113 108.145 66.8769 107.641 66.4551 107.248C66.0391 106.85 65.5234 106.65 64.9082 106.65C64.082 106.65 63.4404 106.949 62.9834 107.547C62.5322 108.139 62.3066 108.997 62.3066 110.122V110.43C62.3066 111.525 62.5322 112.369 62.9834 112.961C63.4346 113.553 64.0791 113.849 64.917 113.849ZM75.1211 106.949C74.875 106.908 74.6084 106.888 74.3213 106.888C73.2549 106.888 72.5312 107.342 72.1504 108.25V115H70.5244V105.49H72.1064L72.1328 106.589C72.666 105.739 73.4219 105.314 74.4004 105.314C74.7168 105.314 74.957 105.355 75.1211 105.437V106.949ZM78.3906 115H76.7646V105.49H78.3906V115ZM76.6328 102.968C76.6328 102.704 76.7119 102.481 76.8701 102.3C77.0342 102.118 77.2744 102.027 77.5908 102.027C77.9072 102.027 78.1475 102.118 78.3115 102.3C78.4756 102.481 78.5576 102.704 78.5576 102.968C78.5576 103.231 78.4756 103.451 78.3115 103.627C78.1475 103.803 77.9072 103.891 77.5908 103.891C77.2744 103.891 77.0342 103.803 76.8701 103.627C76.7119 103.451 76.6328 103.231 76.6328 102.968ZM89.0342 110.351C89.0342 111.798 88.7031 112.964 88.041 113.849C87.3789 114.733 86.4824 115.176 85.3516 115.176C84.1973 115.176 83.2891 114.81 82.6269 114.077V118.656H81.001V105.49H82.4863L82.5654 106.545C83.2275 105.725 84.1475 105.314 85.3252 105.314C86.4678 105.314 87.3701 105.745 88.0322 106.606C88.7002 107.468 89.0342 108.666 89.0342 110.201V110.351ZM87.4082 110.166C87.4082 109.094 87.1797 108.247 86.7227 107.626C86.2656 107.005 85.6387 106.694 84.8418 106.694C83.8574 106.694 83.1191 107.131 82.6269 108.004V112.548C83.1133 113.415 83.8574 113.849 84.8594 113.849C85.6387 113.849 86.2568 113.541 86.7139 112.926C87.1768 112.305 87.4082 111.385 87.4082 110.166ZM93.3144 103.187V105.49H95.0898V106.747H93.3144V112.645C93.3144 113.025 93.3935 113.312 93.5518 113.506C93.71 113.693 93.9795 113.787 94.3603 113.787C94.5478 113.787 94.8057 113.752 95.1338 113.682V115C94.706 115.117 94.29 115.176 93.8857 115.176C93.1592 115.176 92.6113 114.956 92.2422 114.517C91.873 114.077 91.6885 113.453 91.6885 112.645V106.747H89.957V105.49H91.6885V103.187H93.3144Z" fill="black"/>
<rect x="13" y="22" width="71" height="56" fill="white"/>
<g clip-path="url(#clip0)">
<path d="M54.9931 68.0961L55.3957 67.8602L61.1379 64.4957L61.5638 64.2462L61.8188 64.6689C62.5524 65.8852 63.3793 66.9082 64.4153 67.6283C65.4428 68.3425 66.7024 68.7771 68.3382 68.7771C69.715 68.7771 70.7982 68.4274 71.5239 67.8814C72.24 67.3427 72.6261 66.603 72.6261 65.7428C72.6261 65.199 72.5209 64.7661 72.3324 64.3981C72.1429 64.0282 71.8559 63.6978 71.4561 63.3787C70.6365 62.7246 69.4211 62.1739 67.7851 61.4426C67.7842 61.4422 67.7834 61.4418 67.7826 61.4414L66.031 60.6795C66.0306 60.6794 66.0303 60.6792 66.0299 60.6791C63.4609 59.5725 61.2665 58.296 59.7163 56.5174C58.1515 54.7222 57.2745 52.4524 57.2745 49.4303C57.2745 46.6157 58.3344 44.1196 60.2336 42.3291C62.1318 40.5395 64.8382 39.4826 68.0871 39.4826C70.3885 39.4826 72.4032 39.888 74.1505 40.8534C75.9008 41.8203 77.3436 43.3275 78.535 45.4656L78.7624 45.8737L78.3707 46.1282L72.8796 49.6966L72.4283 49.9898L72.169 49.5183C71.5874 48.4606 71.0071 47.7708 70.3675 47.3411C69.7367 46.9173 69.0066 46.7187 68.0703 46.7187C67.1495 46.7187 66.4364 47.0135 65.9578 47.4627C65.4803 47.9108 65.2054 48.5409 65.2054 49.2773C65.2054 50.2187 65.4809 50.834 66.0765 51.3847C66.7119 51.9723 67.7204 52.4952 69.2422 53.1695C69.2427 53.1697 69.2433 53.17 69.2438 53.1702L70.9981 53.9333L54.9931 68.0961ZM54.9931 68.0961L55.2006 68.514M54.9931 68.0961L55.2006 68.514M55.2006 68.514C57.346 72.8336 61.7571 76.0982 68.4888 76.0982M55.2006 68.514L68.4888 76.0982M68.4888 76.0982C71.9112 76.0982 74.9494 75.1931 77.1427 73.4167C79.3484 71.6302 80.6574 68.9949 80.6574 65.6408C80.6574 62.5426 79.7804 60.2547 78.0947 58.411M68.4888 76.0982L78.0947 58.411M78.0947 58.411C76.4299 56.59 74.0084 55.2391 70.9986 53.9335L78.0947 58.411ZM30.4431 68.6299L30.0623 68.8631L30.2512 69.2678C31.9957 73.0039 35.4222 76.0982 41.2846 76.0982C44.4929 76.0982 47.2651 75.2289 49.2369 73.3428C51.2129 71.4527 52.3147 68.6093 52.3147 64.8082V40.3904V39.8904H51.8147H44.7667H44.2667V40.3904V64.7062C44.2667 66.4479 43.906 67.4143 43.3824 67.9541C42.8649 68.4878 42.0863 68.7092 40.9833 68.7092C39.9069 68.7092 39.1714 68.3445 38.5663 67.7599C37.9359 67.151 37.4419 66.3008 36.8835 65.296L36.6301 64.84L36.1853 65.1125L30.4431 68.6299ZM19.0357 5.9375L77.9643 5.9375C82.1175 5.9375 85.5 9.35992 85.5 13.5937V73.4062C85.5 77.6401 82.1175 81.0625 77.9643 81.0625H19.0357C14.8825 81.0625 11.5 77.6401 11.5 73.4062L11.5 13.5937C11.5 9.35992 14.8825 5.9375 19.0357 5.9375Z" fill="#FFC90A" stroke="black"/>
</g>
<defs>
<clipPath id="clip0">
<rect width="75" height="87" fill="white" transform="translate(11)"/>
</clipPath>
</defs>
</svg>
