<svg width="37" height="35" viewBox="0 0 37 35" fill="none" xmlns="http://www.w3.org/2000/svg">
<rect x="4.10492" y="2.59192" width="28.7343" height="29.807" fill="white"/>
<path d="M34.067 0H2.61235C1.17105 0 0 1.13198 0 2.52158V32.4526C0 33.8422 1.17105 34.9742 2.61235 34.9742H34.067C35.5083 34.9742 36.6875 33.8422 36.6875 32.4526V2.52158C36.6875 1.13198 35.5083 0 34.067 0ZM11.0881 29.9779H5.65053V13.2871H11.0963V29.9779H11.0881ZM8.36934 11.0075C6.62504 11.0075 5.2165 9.65693 5.2165 8.00191C5.2165 6.34688 6.62504 4.99631 8.36934 4.99631C10.1054 4.99631 11.5222 6.34688 11.5222 8.00191C11.5222 9.66474 10.1136 11.0075 8.36934 11.0075ZM31.471 29.9779H26.0334V21.8589C26.0334 19.9228 25.9924 17.4324 23.2081 17.4324C20.3747 17.4324 19.9406 19.5403 19.9406 21.7183V29.9779H14.503V13.2871H19.7195V15.5666H19.7932C20.5221 14.2551 22.2991 12.8733 24.9442 12.8733C30.4473 12.8733 31.471 16.3317 31.471 20.8284V29.9779Z" fill="#156BA9"/>
</svg>
