<svg width="35" height="36" viewBox="0 0 35 36" fill="none" xmlns="http://www.w3.org/2000/svg">
<path d="M6.16667 5.9986L30.0625 6.76401L34.3021 15.1835V32.788H0V15.1835L6.16667 5.9986Z" fill="white"/>
<path d="M11.9238 15.1769H22.7637C23.3626 15.1769 23.8477 14.6738 23.8477 14.0527V12.9285C23.8477 12.3074 23.3626 11.8043 22.7637 11.8043H11.9238C11.3249 11.8043 10.8398 12.3074 10.8398 12.9285V14.0527C10.8398 14.6738 11.3249 15.1769 11.9238 15.1769ZM10.8398 20.7979C10.8398 21.419 11.3249 21.9221 11.9238 21.9221H22.7637C23.3626 21.9221 23.8477 21.419 23.8477 20.7979V19.6737C23.8477 19.0526 23.3626 18.5495 22.7637 18.5495H11.9238C11.3249 18.5495 10.8398 19.0526 10.8398 19.6737V20.7979ZM17.3438 29.3088C16.2313 29.3088 15.1189 28.9532 14.169 28.2415L0 17.6262V32.602C0 34.4646 1.45593 35.9745 3.25195 35.9745H31.4355C33.2316 35.9745 34.6875 34.4646 34.6875 32.602V17.6262L20.5185 28.2415C19.5686 28.9525 18.4562 29.3088 17.3438 29.3088ZM33.4416 11.4495C32.842 10.9618 32.2736 10.503 31.4355 9.84678V6.7454C31.4355 4.88275 29.9796 3.37281 28.1836 3.37281H22.9297C22.7237 3.21823 22.532 3.07349 22.3172 2.91189C21.1783 2.04977 18.9155 -0.024375 17.3438 0.000216785C15.772 -0.024375 13.5098 2.04977 12.3703 2.91189C12.1555 3.07349 11.9638 3.21823 11.7578 3.37281H6.50391C4.70788 3.37281 3.25195 4.88275 3.25195 6.7454V9.84678C2.4139 10.5023 1.84548 10.9618 1.2459 11.4495C0.85781 11.7649 0.543967 12.1677 0.328118 12.6275C0.112269 13.0873 6.67874e-05 13.5919 0 14.1033L0 14.8516L6.50391 19.7243V6.7454H28.1836V19.7243L34.6875 14.8516V14.1033C34.6875 13.0676 34.2282 12.0889 33.4416 11.4495Z" fill="#E05F5F"/>
</svg>
