<svg width="127" height="109" viewBox="0 0 127 109" fill="none" xmlns="http://www.w3.org/2000/svg">
<path d="M52.9189 108H51.2227L44.7803 98.1387V108H43.084V95.2031H44.7803L51.2402 105.108V95.2031H52.9189V108ZM55.2305 103.157C55.2305 102.226 55.4121 101.388 55.7754 100.644C56.1445 99.8994 56.6543 99.3252 57.3047 98.9209C57.9609 98.5166 58.708 98.3145 59.5459 98.3145C60.8408 98.3145 61.8867 98.7627 62.6836 99.6592C63.4863 100.556 63.8877 101.748 63.8877 103.236V103.351C63.8877 104.276 63.709 105.108 63.3516 105.847C63 106.579 62.4932 107.15 61.8311 107.561C61.1748 107.971 60.4189 108.176 59.5635 108.176C58.2744 108.176 57.2285 107.728 56.4258 106.831C55.6289 105.935 55.2305 104.748 55.2305 103.271V103.157ZM56.8652 103.351C56.8652 104.405 57.1084 105.252 57.5947 105.891C58.0869 106.529 58.7432 106.849 59.5635 106.849C60.3896 106.849 61.0459 106.526 61.5322 105.882C62.0186 105.231 62.2617 104.323 62.2617 103.157C62.2617 102.114 62.0127 101.271 61.5146 100.626C61.0225 99.9756 60.3662 99.6504 59.5459 99.6504C58.7432 99.6504 58.0957 99.9697 57.6035 100.608C57.1113 101.247 56.8652 102.161 56.8652 103.351ZM65.5312 103.166C65.5312 101.707 65.877 100.535 66.5684 99.6504C67.2598 98.7598 68.165 98.3145 69.2842 98.3145C70.3975 98.3145 71.2793 98.6953 71.9297 99.457V94.5H73.5557V108H72.0615L71.9824 106.98C71.332 107.777 70.4268 108.176 69.2666 108.176C68.165 108.176 67.2656 107.725 66.5684 106.822C65.877 105.92 65.5312 104.742 65.5312 103.289V103.166ZM67.1572 103.351C67.1572 104.429 67.3799 105.272 67.8252 105.882C68.2705 106.491 68.8857 106.796 69.6709 106.796C70.7021 106.796 71.4551 106.333 71.9297 105.407V101.039C71.4434 100.143 70.6963 99.6943 69.6885 99.6943C68.8916 99.6943 68.2705 100.002 67.8252 100.617C67.3799 101.232 67.1572 102.144 67.1572 103.351ZM80.0332 108.176C78.7441 108.176 77.6953 107.754 76.8867 106.91C76.0781 106.061 75.6738 104.927 75.6738 103.509V103.21C75.6738 102.267 75.8525 101.426 76.21 100.687C76.5732 99.9434 77.0771 99.3633 77.7217 98.9473C78.3721 98.5254 79.0752 98.3145 79.8311 98.3145C81.0674 98.3145 82.0283 98.7217 82.7139 99.5361C83.3994 100.351 83.7422 101.517 83.7422 103.034V103.711H77.2998C77.3232 104.648 77.5957 105.407 78.1172 105.987C78.6445 106.562 79.3125 106.849 80.1211 106.849C80.6953 106.849 81.1816 106.731 81.5801 106.497C81.9785 106.263 82.3271 105.952 82.626 105.565L83.6191 106.339C82.8223 107.563 81.6269 108.176 80.0332 108.176ZM79.8311 99.6504C79.1748 99.6504 78.624 99.8906 78.1787 100.371C77.7334 100.846 77.458 101.514 77.3525 102.375H82.1162V102.252C82.0693 101.426 81.8467 100.787 81.4482 100.336C81.0498 99.8789 80.5107 99.6504 79.8311 99.6504Z" fill="black"/>
<g clip-path="url(#clip0)">
<mask id="path-2-inside-1" fill="white">
<path d="M62.7658 54.7898C62.3491 54.7898 61.9323 54.7172 61.5553 54.5961L57.7453 53.2156C57.1698 53.0219 57.4477 52.9492 57.6461 52.9129C58.4002 52.7554 58.5589 52.7191 59.3725 52.4285C59.4519 52.4043 59.5709 52.4164 59.6503 52.4406L62.5872 53.5062C62.6864 53.5426 62.8452 53.5426 62.9444 53.5062L74.4141 49.4617C74.5133 49.4254 74.5927 49.3527 74.5927 49.2679V41.191C74.5927 41.1062 74.5331 41.0336 74.4141 40.9972L62.9444 36.9648C62.8452 36.9285 62.7062 36.9285 62.5872 36.9648L51.1175 40.9972C50.9984 41.0336 50.9389 41.1183 50.9389 41.191V49.2679C50.9389 49.3406 51.0183 49.4133 51.1175 49.4496L54.2528 50.5515C55.9594 51.0722 57.0111 50.4547 57.0111 49.8492V41.8691C57.0111 41.7601 57.15 41.6633 57.3484 41.6633H58.797C58.9756 41.6633 59.1344 41.748 59.1344 41.8691V49.8492C59.1344 51.2418 57.9041 52.0289 55.7411 52.0289C55.0862 52.0289 54.5505 52.0289 53.1019 51.5929L50.0856 50.5394C49.3514 50.273 48.8752 49.7886 48.8752 49.2679V41.191C48.8752 40.6703 49.3316 40.1738 50.0856 39.9195L61.5553 35.875C62.2895 35.6207 63.242 35.6207 63.9564 35.875L75.4261 39.9195C76.1603 40.1859 76.6366 40.6703 76.6366 41.191V49.2679C76.6366 49.7886 76.1802 50.2851 75.4261 50.5394L63.9564 54.584C63.6191 54.7172 63.2023 54.7898 62.7658 54.7898ZM72.0328 46.8219C72.0328 45.3082 70.3659 44.9086 66.8337 44.6179C63.2619 44.3273 62.9047 44.182 62.9047 43.6734C62.9047 43.2496 63.2023 42.6926 65.8416 42.6926C68.203 42.6926 69.0761 43.0074 69.4333 43.9762C69.473 44.073 69.592 44.1336 69.7508 44.1336H71.2391C71.3383 44.1336 71.4177 44.1093 71.4772 44.073C71.5367 44.0246 71.5764 43.9762 71.5566 43.9156C71.3184 42.2445 69.5126 41.4695 65.8416 41.4695C62.5673 41.4695 60.6227 42.3172 60.6227 43.7218C60.6227 45.2597 62.5673 45.6715 65.7026 45.8652C69.4531 46.0953 69.7508 46.4222 69.7508 46.8703C69.7508 47.6574 68.7189 47.9843 66.298 47.9843C63.2619 47.9843 62.5872 47.5242 62.3689 46.6039C62.3491 46.507 62.2102 46.4344 62.0316 46.4344H60.5433C60.3647 46.4344 60.2059 46.5191 60.2059 46.6402C60.2059 47.8148 61.2577 49.2195 66.2781 49.2195C69.9492 49.2195 72.0328 48.3476 72.0328 46.8219ZM82.8477 40.7551C82.8477 41.4937 81.8555 42.0992 80.645 42.0992C79.4345 42.0992 78.4423 41.4937 78.4423 40.7551C78.4423 39.9922 79.4742 39.4109 80.645 39.4109C81.8356 39.3988 82.8477 39.9922 82.8477 40.7551ZM82.4905 40.7551C82.4905 40.1254 81.657 39.6289 80.6251 39.6289C79.6131 39.6289 78.7797 40.1254 78.7797 40.7551C78.7797 41.3847 79.6131 41.8933 80.6251 41.8933C81.657 41.8812 82.4905 41.3726 82.4905 40.7551ZM81.5975 41.5058H81.0816C81.0617 41.4332 80.9823 41.0457 80.9823 41.0336C80.9427 40.9488 80.903 40.9004 80.7244 40.9004H80.2878V41.5058H79.8116V39.9922H80.6648C80.9625 39.9922 81.538 39.9922 81.538 40.3918C81.538 40.6703 81.2403 40.7308 81.0617 40.7672C81.3991 40.7793 81.4189 40.9125 81.4784 41.1062C81.4983 41.2273 81.538 41.4332 81.5975 41.5058ZM81.0419 40.4402C81.0419 40.2344 80.8038 40.2344 80.6847 40.2344H80.2878V40.6582H80.6648C80.9823 40.6582 81.0419 40.525 81.0419 40.4402ZM27.2455 23.1844C27.2455 22.8574 26.9677 22.5668 26.5112 22.4094L14.347 18.1347C14.1486 18.0621 13.9105 18.0258 13.6723 18.0136H13.5533C13.3152 18.0136 13.0969 18.0621 12.8786 18.1347L0.734219 22.4094C0.277812 22.5668 0 22.8695 0 23.1844L0.0198437 34.6883C0.0198437 34.8457 0.15875 34.991 0.377031 35.0758C0.595312 35.1605 0.873125 35.1605 1.11125 35.0758L8.33437 32.5449C8.79078 32.3754 9.06859 32.0847 9.06859 31.7699V26.3933C9.06859 26.0785 9.34641 25.7758 9.80281 25.6183L12.8786 24.5406C13.1167 24.4558 13.3548 24.4195 13.6128 24.4195C13.8708 24.4195 14.1287 24.4558 14.347 24.5406L17.4228 25.6183C17.8792 25.7758 18.157 26.0785 18.157 26.3933V31.7699C18.157 32.0847 18.4348 32.3875 18.8912 32.5449L26.1144 35.0758C26.3327 35.1605 26.6303 35.1605 26.8486 35.0758C27.0669 35.0031 27.2058 34.8457 27.2058 34.6883L27.2455 23.1844ZM93.7617 10.6269V31.9879C93.7617 32.3027 93.4839 32.6054 93.0275 32.7629L80.8633 37.0496C80.4069 37.207 79.8512 37.207 79.3948 37.0496L67.2306 32.7629C66.7742 32.6054 66.4964 32.3027 66.4964 31.9879V23.4144C66.4964 23.0996 66.7742 22.7969 67.2306 22.6394L79.3948 18.3527C79.8512 18.1953 80.4069 18.1953 80.8633 18.3527L83.8994 19.4183C84.2367 19.5394 84.6733 19.382 84.6733 19.1519V7.76912C84.6733 7.43006 85.2686 7.21209 85.7647 7.38162L93.0077 9.85193C93.4641 9.99724 93.7617 10.3 93.7617 10.6269ZM84.6336 26.2359C84.6336 26.1511 84.5542 26.0785 84.455 26.0422L80.2878 24.5648C80.1687 24.5285 80.0298 24.5285 79.9108 24.5648L75.7436 26.0422C75.6245 26.0785 75.565 26.1511 75.565 26.2359V29.1785C75.565 29.2633 75.6444 29.3359 75.7436 29.3722L79.9108 30.8375C80.0298 30.8738 80.1687 30.8738 80.268 30.8375L84.4351 29.3722C84.5542 29.3359 84.6137 29.2633 84.6137 29.1785V26.2359H84.6336ZM126.266 26.1511C126.722 25.9937 127 25.691 127 25.3761V23.3054C127 22.9906 126.722 22.6879 126.266 22.5304L114.181 18.2437C113.725 18.0863 113.169 18.0863 112.712 18.2437L100.548 22.5304C100.092 22.6879 99.8141 22.9906 99.8141 23.3054V31.8789C99.8141 32.2058 100.092 32.4965 100.548 32.6539L112.633 36.8558C113.07 37.0133 113.625 37.0133 114.082 36.8558L121.384 34.3734C121.88 34.2039 121.88 33.7679 121.384 33.5984L109.141 29.3117C108.902 29.2269 108.764 29.0816 108.764 28.9242V26.2359C108.764 26.0785 108.902 25.9332 109.141 25.8484L112.951 24.5043C113.169 24.4195 113.467 24.4195 113.685 24.5043L117.495 25.8484C117.713 25.9332 117.872 26.0785 117.872 26.2359V28.3429C117.872 28.682 118.487 28.9 118.983 28.7304L126.266 26.1511ZM110.927 26.575C110.847 26.6113 110.788 26.6597 110.788 26.7203V28.3672C110.788 28.4277 110.847 28.4883 110.927 28.5125L113.268 29.3359C113.347 29.3722 113.467 29.3722 113.546 29.3359L115.887 28.5125C115.967 28.4761 116.026 28.4277 116.026 28.3672V26.7203C116.026 26.6597 115.967 26.5992 115.887 26.575L113.546 25.7515C113.467 25.7152 113.347 25.7152 113.268 25.7515L110.927 26.575ZM60.4837 31.8426V23.3176C60.4837 23.0027 60.1662 22.7 59.7098 22.5426L47.5853 18.2801C47.1686 18.1347 46.5931 18.1105 46.1169 18.2801L33.9923 22.5426C33.5359 22.7 33.2184 22.9906 33.2184 23.3176V31.8426C33.2184 32.1816 33.5955 32.4722 34.0122 32.6176L46.1566 36.8801C46.6328 37.0496 47.1884 37.0375 47.625 36.8801L59.7297 32.6176C60.0869 32.4965 60.3448 32.2906 60.4441 32.0484C60.4639 31.9879 60.4837 31.9152 60.4837 31.8426ZM45.7398 16.7179L45.5811 16.7785H45.7994L45.7398 16.7179ZM60.8608 32.4844L60.7814 32.3996V32.5086L60.8608 32.4844Z"/>
</mask>
<path d="M62.7658 54.7898C62.3491 54.7898 61.9323 54.7172 61.5553 54.5961L57.7453 53.2156C57.1698 53.0219 57.4477 52.9492 57.6461 52.9129C58.4002 52.7554 58.5589 52.7191 59.3725 52.4285C59.4519 52.4043 59.5709 52.4164 59.6503 52.4406L62.5872 53.5062C62.6864 53.5426 62.8452 53.5426 62.9444 53.5062L74.4141 49.4617C74.5133 49.4254 74.5927 49.3527 74.5927 49.2679V41.191C74.5927 41.1062 74.5331 41.0336 74.4141 40.9972L62.9444 36.9648C62.8452 36.9285 62.7062 36.9285 62.5872 36.9648L51.1175 40.9972C50.9984 41.0336 50.9389 41.1183 50.9389 41.191V49.2679C50.9389 49.3406 51.0183 49.4133 51.1175 49.4496L54.2528 50.5515C55.9594 51.0722 57.0111 50.4547 57.0111 49.8492V41.8691C57.0111 41.7601 57.15 41.6633 57.3484 41.6633H58.797C58.9756 41.6633 59.1344 41.748 59.1344 41.8691V49.8492C59.1344 51.2418 57.9041 52.0289 55.7411 52.0289C55.0862 52.0289 54.5505 52.0289 53.1019 51.5929L50.0856 50.5394C49.3514 50.273 48.8752 49.7886 48.8752 49.2679V41.191C48.8752 40.6703 49.3316 40.1738 50.0856 39.9195L61.5553 35.875C62.2895 35.6207 63.242 35.6207 63.9564 35.875L75.4261 39.9195C76.1603 40.1859 76.6366 40.6703 76.6366 41.191V49.2679C76.6366 49.7886 76.1802 50.2851 75.4261 50.5394L63.9564 54.584C63.6191 54.7172 63.2023 54.7898 62.7658 54.7898ZM72.0328 46.8219C72.0328 45.3082 70.3659 44.9086 66.8337 44.6179C63.2619 44.3273 62.9047 44.182 62.9047 43.6734C62.9047 43.2496 63.2023 42.6926 65.8416 42.6926C68.203 42.6926 69.0761 43.0074 69.4333 43.9762C69.473 44.073 69.592 44.1336 69.7508 44.1336H71.2391C71.3383 44.1336 71.4177 44.1093 71.4772 44.073C71.5367 44.0246 71.5764 43.9762 71.5566 43.9156C71.3184 42.2445 69.5126 41.4695 65.8416 41.4695C62.5673 41.4695 60.6227 42.3172 60.6227 43.7218C60.6227 45.2597 62.5673 45.6715 65.7026 45.8652C69.4531 46.0953 69.7508 46.4222 69.7508 46.8703C69.7508 47.6574 68.7189 47.9843 66.298 47.9843C63.2619 47.9843 62.5872 47.5242 62.3689 46.6039C62.3491 46.507 62.2102 46.4344 62.0316 46.4344H60.5433C60.3647 46.4344 60.2059 46.5191 60.2059 46.6402C60.2059 47.8148 61.2577 49.2195 66.2781 49.2195C69.9492 49.2195 72.0328 48.3476 72.0328 46.8219ZM82.8477 40.7551C82.8477 41.4937 81.8555 42.0992 80.645 42.0992C79.4345 42.0992 78.4423 41.4937 78.4423 40.7551C78.4423 39.9922 79.4742 39.4109 80.645 39.4109C81.8356 39.3988 82.8477 39.9922 82.8477 40.7551ZM82.4905 40.7551C82.4905 40.1254 81.657 39.6289 80.6251 39.6289C79.6131 39.6289 78.7797 40.1254 78.7797 40.7551C78.7797 41.3847 79.6131 41.8933 80.6251 41.8933C81.657 41.8812 82.4905 41.3726 82.4905 40.7551ZM81.5975 41.5058H81.0816C81.0617 41.4332 80.9823 41.0457 80.9823 41.0336C80.9427 40.9488 80.903 40.9004 80.7244 40.9004H80.2878V41.5058H79.8116V39.9922H80.6648C80.9625 39.9922 81.538 39.9922 81.538 40.3918C81.538 40.6703 81.2403 40.7308 81.0617 40.7672C81.3991 40.7793 81.4189 40.9125 81.4784 41.1062C81.4983 41.2273 81.538 41.4332 81.5975 41.5058ZM81.0419 40.4402C81.0419 40.2344 80.8038 40.2344 80.6847 40.2344H80.2878V40.6582H80.6648C80.9823 40.6582 81.0419 40.525 81.0419 40.4402ZM27.2455 23.1844C27.2455 22.8574 26.9677 22.5668 26.5112 22.4094L14.347 18.1347C14.1486 18.0621 13.9105 18.0258 13.6723 18.0136H13.5533C13.3152 18.0136 13.0969 18.0621 12.8786 18.1347L0.734219 22.4094C0.277812 22.5668 0 22.8695 0 23.1844L0.0198437 34.6883C0.0198437 34.8457 0.15875 34.991 0.377031 35.0758C0.595312 35.1605 0.873125 35.1605 1.11125 35.0758L8.33437 32.5449C8.79078 32.3754 9.06859 32.0847 9.06859 31.7699V26.3933C9.06859 26.0785 9.34641 25.7758 9.80281 25.6183L12.8786 24.5406C13.1167 24.4558 13.3548 24.4195 13.6128 24.4195C13.8708 24.4195 14.1287 24.4558 14.347 24.5406L17.4228 25.6183C17.8792 25.7758 18.157 26.0785 18.157 26.3933V31.7699C18.157 32.0847 18.4348 32.3875 18.8912 32.5449L26.1144 35.0758C26.3327 35.1605 26.6303 35.1605 26.8486 35.0758C27.0669 35.0031 27.2058 34.8457 27.2058 34.6883L27.2455 23.1844ZM93.7617 10.6269V31.9879C93.7617 32.3027 93.4839 32.6054 93.0275 32.7629L80.8633 37.0496C80.4069 37.207 79.8512 37.207 79.3948 37.0496L67.2306 32.7629C66.7742 32.6054 66.4964 32.3027 66.4964 31.9879V23.4144C66.4964 23.0996 66.7742 22.7969 67.2306 22.6394L79.3948 18.3527C79.8512 18.1953 80.4069 18.1953 80.8633 18.3527L83.8994 19.4183C84.2367 19.5394 84.6733 19.382 84.6733 19.1519V7.76912C84.6733 7.43006 85.2686 7.21209 85.7647 7.38162L93.0077 9.85193C93.4641 9.99724 93.7617 10.3 93.7617 10.6269ZM84.6336 26.2359C84.6336 26.1511 84.5542 26.0785 84.455 26.0422L80.2878 24.5648C80.1687 24.5285 80.0298 24.5285 79.9108 24.5648L75.7436 26.0422C75.6245 26.0785 75.565 26.1511 75.565 26.2359V29.1785C75.565 29.2633 75.6444 29.3359 75.7436 29.3722L79.9108 30.8375C80.0298 30.8738 80.1687 30.8738 80.268 30.8375L84.4351 29.3722C84.5542 29.3359 84.6137 29.2633 84.6137 29.1785V26.2359H84.6336ZM126.266 26.1511C126.722 25.9937 127 25.691 127 25.3761V23.3054C127 22.9906 126.722 22.6879 126.266 22.5304L114.181 18.2437C113.725 18.0863 113.169 18.0863 112.712 18.2437L100.548 22.5304C100.092 22.6879 99.8141 22.9906 99.8141 23.3054V31.8789C99.8141 32.2058 100.092 32.4965 100.548 32.6539L112.633 36.8558C113.07 37.0133 113.625 37.0133 114.082 36.8558L121.384 34.3734C121.88 34.2039 121.88 33.7679 121.384 33.5984L109.141 29.3117C108.902 29.2269 108.764 29.0816 108.764 28.9242V26.2359C108.764 26.0785 108.902 25.9332 109.141 25.8484L112.951 24.5043C113.169 24.4195 113.467 24.4195 113.685 24.5043L117.495 25.8484C117.713 25.9332 117.872 26.0785 117.872 26.2359V28.3429C117.872 28.682 118.487 28.9 118.983 28.7304L126.266 26.1511ZM110.927 26.575C110.847 26.6113 110.788 26.6597 110.788 26.7203V28.3672C110.788 28.4277 110.847 28.4883 110.927 28.5125L113.268 29.3359C113.347 29.3722 113.467 29.3722 113.546 29.3359L115.887 28.5125C115.967 28.4761 116.026 28.4277 116.026 28.3672V26.7203C116.026 26.6597 115.967 26.5992 115.887 26.575L113.546 25.7515C113.467 25.7152 113.347 25.7152 113.268 25.7515L110.927 26.575ZM60.4837 31.8426V23.3176C60.4837 23.0027 60.1662 22.7 59.7098 22.5426L47.5853 18.2801C47.1686 18.1347 46.5931 18.1105 46.1169 18.2801L33.9923 22.5426C33.5359 22.7 33.2184 22.9906 33.2184 23.3176V31.8426C33.2184 32.1816 33.5955 32.4722 34.0122 32.6176L46.1566 36.8801C46.6328 37.0496 47.1884 37.0375 47.625 36.8801L59.7297 32.6176C60.0869 32.4965 60.3448 32.2906 60.4441 32.0484C60.4639 31.9879 60.4837 31.9152 60.4837 31.8426ZM45.7398 16.7179L45.5811 16.7785H45.7994L45.7398 16.7179ZM60.8608 32.4844L60.7814 32.3996V32.5086L60.8608 32.4844Z" fill="#108A24" stroke="black" stroke-width="2" mask="url(#path-2-inside-1)"/>
</g>
<defs>
<clipPath id="clip0">
<rect width="127" height="62" fill="white"/>
</clipPath>
</defs>
</svg>
