<svg width="89" height="109" viewBox="0 0 89 109" fill="none" xmlns="http://www.w3.org/2000/svg">
<mask id="path-1-inside-1" fill="white">
<path d="M72.6949 24.6287C71.7563 24.3234 70.8176 24.035 69.8789 23.7636C70.0353 23.1359 70.1744 22.5083 70.3135 21.8806C72.4516 11.7705 71.0436 3.64501 66.298 0.964791C61.7264 -1.59668 54.2691 1.06657 46.725 7.47873C45.9775 8.10637 45.2475 8.76795 44.5521 9.42952C44.0828 8.98847 43.5961 8.54742 43.1094 8.12334C35.2002 1.27013 27.2736 -1.61364 22.5281 1.08354C17.9738 3.66197 16.618 11.3125 18.5301 20.8798C18.7213 21.8298 18.9299 22.7627 19.1732 23.7127C18.0607 24.018 16.9656 24.3573 15.94 24.7135C6.65762 27.8517 0 32.8051 0 37.928C0 43.2206 7.09219 48.5301 16.7396 51.7532C17.5219 52.0076 18.3041 52.262 19.1037 52.4826C18.843 53.5004 18.617 54.5012 18.4084 55.536C16.5832 64.9507 18.0086 72.4145 22.5629 74.976C27.2562 77.6223 35.148 74.9082 42.8312 68.3433C43.4396 67.8175 44.048 67.2746 44.6564 66.6979C45.4213 67.4273 46.2209 68.1228 47.0205 68.8013C54.4604 75.0439 61.8133 77.5714 66.3502 75.0099C71.0436 72.3637 72.5732 64.34 70.5916 54.5691C70.4352 53.8227 70.2613 53.0593 70.0701 52.279C70.6264 52.1263 71.1652 51.9567 71.7041 51.7871C81.734 48.5471 89 43.3054 89 37.928C89 32.7881 82.1512 27.8009 72.6949 24.6287ZM49.176 10.2268C55.6424 4.73066 61.6742 2.57631 64.4207 4.11998C67.3584 5.76543 68.4883 12.4151 66.6457 21.1512C66.524 21.728 66.4023 22.2878 66.2459 22.8475C62.3869 21.9994 58.4758 21.3887 54.5473 21.0494C52.2875 17.8942 49.8191 14.8748 47.1422 12.0419C47.8201 11.4142 48.4807 10.8205 49.176 10.2268ZM29.0641 46.732C29.9506 48.2078 30.8545 49.6836 31.8105 51.1255C29.0988 50.8371 26.4045 50.413 23.7449 49.8532C24.5098 47.4105 25.4658 44.883 26.5783 42.3045C27.3779 43.7973 28.1949 45.2731 29.0641 46.732ZM23.7971 26.325C26.3002 25.7822 28.9598 25.3412 31.7236 25.0019C30.8023 26.4099 29.8984 27.8517 29.0467 29.3106C28.1949 30.7525 27.3605 32.2283 26.5783 33.7211C25.4832 31.1935 24.5619 28.7169 23.7971 26.325ZM28.56 38.0128C29.7072 35.6719 30.9588 33.3818 32.2799 31.1257C33.601 28.8696 35.0264 26.6813 36.5213 24.5269C39.1287 24.3403 41.7883 24.2385 44.5 24.2385C47.2117 24.2385 49.8887 24.3403 52.4787 24.5269C53.9562 26.6643 55.3643 28.8526 56.7027 31.0918C58.0412 33.3309 59.2928 35.621 60.4748 37.945C59.3102 40.2859 58.0586 42.5929 56.7201 44.866C55.399 47.1221 53.991 49.3104 52.5135 51.4817C49.9234 51.6683 47.2291 51.7532 44.5 51.7532C41.7709 51.7532 39.1287 51.6683 36.5734 51.5157C35.0611 49.3613 33.6357 47.1561 32.2973 44.8999C30.9588 42.6438 29.7246 40.3538 28.56 38.0128ZM59.9533 46.6981C60.8398 45.2053 61.6742 43.6955 62.4912 42.1688C63.6037 44.6285 64.5771 47.1221 65.4289 49.6836C62.7346 50.2773 60.0055 50.7353 57.259 51.0407C58.1977 49.6158 59.0842 48.1569 59.9533 46.6981ZM62.4564 33.7211C61.6394 32.2283 60.8051 30.7355 59.9359 29.2767C59.0842 27.8348 58.1977 26.4099 57.2764 25.0019C60.075 25.3412 62.7519 25.7992 65.2551 26.359C64.4555 28.8696 63.5168 31.3123 62.4564 33.7211ZM44.5348 14.6373C46.36 16.5711 48.0809 18.6067 49.6801 20.7102C46.2383 20.5575 42.7791 20.5575 39.3373 20.7102C41.0408 18.5219 42.7965 16.4863 44.5348 14.6373ZM24.3707 4.23872C27.291 2.57631 33.7748 4.95119 40.6062 10.8544C41.0408 11.2276 41.4754 11.6348 41.9273 12.0419C39.233 14.8748 36.7473 17.8942 34.4701 21.0494C30.5416 21.3887 26.6479 21.9824 22.7889 22.8136C22.5629 21.9485 22.3717 21.0664 22.1805 20.1843C20.5465 11.974 21.6242 5.78239 24.3707 4.23872ZM20.1119 48.9542C19.3818 48.7506 18.6691 48.5301 17.9564 48.2926C14.2539 47.1561 10.0473 45.358 7.00527 43C5.24961 41.8126 4.06758 39.9806 3.7373 37.928C3.7373 34.8237 9.23027 30.8543 17.1568 28.1571C18.1477 27.8178 19.1559 27.5125 20.1641 27.2241C21.3461 30.9052 22.7715 34.5184 24.4229 38.0128C22.7541 41.5582 21.3113 45.2223 20.1119 48.9542ZM40.3803 65.5783C37.5121 68.1398 34.192 70.1754 30.5764 71.5664C28.6469 72.4654 26.4219 72.5503 24.4402 71.7869C21.6764 70.2263 20.5291 64.2382 22.0936 56.1806C22.2848 55.2306 22.4934 54.2807 22.7367 53.3477C26.6305 54.162 30.559 54.7217 34.5396 55.0101C36.8342 58.1823 39.3547 61.2187 42.049 64.0686C41.4928 64.5944 40.9365 65.1033 40.3803 65.5783ZM44.6391 61.4562C42.866 59.5902 41.093 57.5207 39.3721 55.2985C41.0408 55.3664 42.7617 55.4003 44.5 55.4003C46.2904 55.4003 48.0461 55.3663 49.7844 55.2815C48.1852 57.4359 46.4643 59.4884 44.6391 61.4562ZM67.3584 66.5452C67.2019 68.6147 66.159 70.5486 64.4902 71.8548C61.7264 73.4154 55.8336 71.3798 49.4715 66.0533C48.7414 65.4426 48.0113 64.781 47.2639 64.1025C49.9234 61.2357 52.3744 58.1992 54.5994 55.0101C58.5801 54.6878 62.5434 54.0941 66.4545 53.229C66.6283 53.9245 66.7848 54.62 66.9238 55.2985C67.7756 58.9626 67.9146 62.7793 67.3584 66.5452ZM70.5221 48.3096C70.0354 48.4623 69.5486 48.6149 69.0445 48.7506C67.8277 45.0526 66.3328 41.4394 64.6119 37.928C66.2807 34.4675 67.6887 30.9052 68.8707 27.258C69.7746 27.5125 70.6437 27.7839 71.4781 28.0553C79.5785 30.7694 85.2627 34.8067 85.2627 37.8941C85.2627 41.2189 79.1961 45.5106 70.5221 48.3096ZM44.5 45.7651C48.8979 45.7651 52.4613 42.2876 52.4613 37.9958C52.4613 33.7041 48.8979 30.2266 44.5 30.2266C40.1021 30.2266 36.5387 33.7041 36.5387 37.9958C36.5387 42.2876 40.1021 45.7651 44.5 45.7651Z"/>
</mask>
<path d="M72.6949 24.6287C71.7563 24.3234 70.8176 24.035 69.8789 23.7636C70.0353 23.1359 70.1744 22.5083 70.3135 21.8806C72.4516 11.7705 71.0436 3.64501 66.298 0.964791C61.7264 -1.59668 54.2691 1.06657 46.725 7.47873C45.9775 8.10637 45.2475 8.76795 44.5521 9.42952C44.0828 8.98847 43.5961 8.54742 43.1094 8.12334C35.2002 1.27013 27.2736 -1.61364 22.5281 1.08354C17.9738 3.66197 16.618 11.3125 18.5301 20.8798C18.7213 21.8298 18.9299 22.7627 19.1732 23.7127C18.0607 24.018 16.9656 24.3573 15.94 24.7135C6.65762 27.8517 0 32.8051 0 37.928C0 43.2206 7.09219 48.5301 16.7396 51.7532C17.5219 52.0076 18.3041 52.262 19.1037 52.4826C18.843 53.5004 18.617 54.5012 18.4084 55.536C16.5832 64.9507 18.0086 72.4145 22.5629 74.976C27.2562 77.6223 35.148 74.9082 42.8312 68.3433C43.4396 67.8175 44.048 67.2746 44.6564 66.6979C45.4213 67.4273 46.2209 68.1228 47.0205 68.8013C54.4604 75.0439 61.8133 77.5714 66.3502 75.0099C71.0436 72.3637 72.5732 64.34 70.5916 54.5691C70.4352 53.8227 70.2613 53.0593 70.0701 52.279C70.6264 52.1263 71.1652 51.9567 71.7041 51.7871C81.734 48.5471 89 43.3054 89 37.928C89 32.7881 82.1512 27.8009 72.6949 24.6287ZM49.176 10.2268C55.6424 4.73066 61.6742 2.57631 64.4207 4.11998C67.3584 5.76543 68.4883 12.4151 66.6457 21.1512C66.524 21.728 66.4023 22.2878 66.2459 22.8475C62.3869 21.9994 58.4758 21.3887 54.5473 21.0494C52.2875 17.8942 49.8191 14.8748 47.1422 12.0419C47.8201 11.4142 48.4807 10.8205 49.176 10.2268ZM29.0641 46.732C29.9506 48.2078 30.8545 49.6836 31.8105 51.1255C29.0988 50.8371 26.4045 50.413 23.7449 49.8532C24.5098 47.4105 25.4658 44.883 26.5783 42.3045C27.3779 43.7973 28.1949 45.2731 29.0641 46.732ZM23.7971 26.325C26.3002 25.7822 28.9598 25.3412 31.7236 25.0019C30.8023 26.4099 29.8984 27.8517 29.0467 29.3106C28.1949 30.7525 27.3605 32.2283 26.5783 33.7211C25.4832 31.1935 24.5619 28.7169 23.7971 26.325ZM28.56 38.0128C29.7072 35.6719 30.9588 33.3818 32.2799 31.1257C33.601 28.8696 35.0264 26.6813 36.5213 24.5269C39.1287 24.3403 41.7883 24.2385 44.5 24.2385C47.2117 24.2385 49.8887 24.3403 52.4787 24.5269C53.9562 26.6643 55.3643 28.8526 56.7027 31.0918C58.0412 33.3309 59.2928 35.621 60.4748 37.945C59.3102 40.2859 58.0586 42.5929 56.7201 44.866C55.399 47.1221 53.991 49.3104 52.5135 51.4817C49.9234 51.6683 47.2291 51.7532 44.5 51.7532C41.7709 51.7532 39.1287 51.6683 36.5734 51.5157C35.0611 49.3613 33.6357 47.1561 32.2973 44.8999C30.9588 42.6438 29.7246 40.3538 28.56 38.0128ZM59.9533 46.6981C60.8398 45.2053 61.6742 43.6955 62.4912 42.1688C63.6037 44.6285 64.5771 47.1221 65.4289 49.6836C62.7346 50.2773 60.0055 50.7353 57.259 51.0407C58.1977 49.6158 59.0842 48.1569 59.9533 46.6981ZM62.4564 33.7211C61.6394 32.2283 60.8051 30.7355 59.9359 29.2767C59.0842 27.8348 58.1977 26.4099 57.2764 25.0019C60.075 25.3412 62.7519 25.7992 65.2551 26.359C64.4555 28.8696 63.5168 31.3123 62.4564 33.7211ZM44.5348 14.6373C46.36 16.5711 48.0809 18.6067 49.6801 20.7102C46.2383 20.5575 42.7791 20.5575 39.3373 20.7102C41.0408 18.5219 42.7965 16.4863 44.5348 14.6373ZM24.3707 4.23872C27.291 2.57631 33.7748 4.95119 40.6062 10.8544C41.0408 11.2276 41.4754 11.6348 41.9273 12.0419C39.233 14.8748 36.7473 17.8942 34.4701 21.0494C30.5416 21.3887 26.6479 21.9824 22.7889 22.8136C22.5629 21.9485 22.3717 21.0664 22.1805 20.1843C20.5465 11.974 21.6242 5.78239 24.3707 4.23872ZM20.1119 48.9542C19.3818 48.7506 18.6691 48.5301 17.9564 48.2926C14.2539 47.1561 10.0473 45.358 7.00527 43C5.24961 41.8126 4.06758 39.9806 3.7373 37.928C3.7373 34.8237 9.23027 30.8543 17.1568 28.1571C18.1477 27.8178 19.1559 27.5125 20.1641 27.2241C21.3461 30.9052 22.7715 34.5184 24.4229 38.0128C22.7541 41.5582 21.3113 45.2223 20.1119 48.9542ZM40.3803 65.5783C37.5121 68.1398 34.192 70.1754 30.5764 71.5664C28.6469 72.4654 26.4219 72.5503 24.4402 71.7869C21.6764 70.2263 20.5291 64.2382 22.0936 56.1806C22.2848 55.2306 22.4934 54.2807 22.7367 53.3477C26.6305 54.162 30.559 54.7217 34.5396 55.0101C36.8342 58.1823 39.3547 61.2187 42.049 64.0686C41.4928 64.5944 40.9365 65.1033 40.3803 65.5783ZM44.6391 61.4562C42.866 59.5902 41.093 57.5207 39.3721 55.2985C41.0408 55.3664 42.7617 55.4003 44.5 55.4003C46.2904 55.4003 48.0461 55.3663 49.7844 55.2815C48.1852 57.4359 46.4643 59.4884 44.6391 61.4562ZM67.3584 66.5452C67.2019 68.6147 66.159 70.5486 64.4902 71.8548C61.7264 73.4154 55.8336 71.3798 49.4715 66.0533C48.7414 65.4426 48.0113 64.781 47.2639 64.1025C49.9234 61.2357 52.3744 58.1992 54.5994 55.0101C58.5801 54.6878 62.5434 54.0941 66.4545 53.229C66.6283 53.9245 66.7848 54.62 66.9238 55.2985C67.7756 58.9626 67.9146 62.7793 67.3584 66.5452ZM70.5221 48.3096C70.0354 48.4623 69.5486 48.6149 69.0445 48.7506C67.8277 45.0526 66.3328 41.4394 64.6119 37.928C66.2807 34.4675 67.6887 30.9052 68.8707 27.258C69.7746 27.5125 70.6437 27.7839 71.4781 28.0553C79.5785 30.7694 85.2627 34.8067 85.2627 37.8941C85.2627 41.2189 79.1961 45.5106 70.5221 48.3096ZM44.5 45.7651C48.8979 45.7651 52.4613 42.2876 52.4613 37.9958C52.4613 33.7041 48.8979 30.2266 44.5 30.2266C40.1021 30.2266 36.5387 33.7041 36.5387 37.9958C36.5387 42.2876 40.1021 45.7651 44.5 45.7651Z" fill="#439EF2" stroke="black" stroke-width="2" mask="url(#path-1-inside-1)"/>
<path d="M28.8096 102.823H25.8037V108H24.1074V95.2031H28.3437C29.7852 95.2031 30.8926 95.5312 31.666 96.1875C32.4453 96.8437 32.835 97.7988 32.835 99.0527C32.835 99.8496 32.6182 100.544 32.1846 101.136C31.7568 101.728 31.1592 102.17 30.3916 102.463L33.3975 107.895V108H31.5869L28.8096 102.823ZM25.8037 101.443H28.3965C29.2344 101.443 29.8994 101.227 30.3916 100.793C30.8896 100.359 31.1387 99.7793 31.1387 99.0527C31.1387 98.2617 30.9014 97.6553 30.4268 97.2334C29.958 96.8115 29.2783 96.5977 28.3877 96.5918H25.8037V101.443ZM38.8994 108.176C37.6103 108.176 36.5615 107.754 35.7529 106.91C34.9443 106.061 34.54 104.927 34.54 103.509V103.21C34.54 102.267 34.7187 101.426 35.0762 100.687C35.4395 99.9434 35.9434 99.3633 36.5879 98.9473C37.2383 98.5254 37.9414 98.3145 38.6973 98.3145C39.9336 98.3145 40.8945 98.7217 41.5801 99.5361C42.2656 100.351 42.6084 101.517 42.6084 103.034V103.711H36.166C36.1895 104.648 36.4619 105.407 36.9834 105.987C37.5107 106.562 38.1787 106.849 38.9873 106.849C39.5615 106.849 40.0478 106.731 40.4463 106.497C40.8447 106.263 41.1934 105.952 41.4922 105.565L42.4853 106.339C41.6885 107.563 40.4932 108.176 38.8994 108.176ZM38.6973 99.6504C38.041 99.6504 37.4902 99.8906 37.0449 100.371C36.5996 100.846 36.3242 101.514 36.2187 102.375H40.9824V102.252C40.9355 101.426 40.7129 100.787 40.3145 100.336C39.916 99.8789 39.377 99.6504 38.6973 99.6504ZM50.3691 108C50.2754 107.812 50.1992 107.479 50.1406 106.998C49.3848 107.783 48.4824 108.176 47.4336 108.176C46.4961 108.176 45.7256 107.912 45.1221 107.385C44.5244 106.852 44.2256 106.178 44.2256 105.363C44.2256 104.373 44.6006 103.605 45.3506 103.061C46.1064 102.51 47.167 102.234 48.5322 102.234H50.1143V101.487C50.1143 100.919 49.9443 100.468 49.6045 100.134C49.2646 99.7939 48.7637 99.624 48.1016 99.624C47.5215 99.624 47.0352 99.7705 46.6426 100.063C46.25 100.356 46.0537 100.711 46.0537 101.127H44.4189C44.4189 100.652 44.5859 100.195 44.9199 99.7559C45.2598 99.3105 45.7168 98.959 46.291 98.7012C46.8711 98.4434 47.5068 98.3145 48.1982 98.3145C49.2939 98.3145 50.1523 98.5898 50.7734 99.1406C51.3945 99.6855 51.7168 100.438 51.7402 101.399V105.776C51.7402 106.649 51.8516 107.344 52.0742 107.859V108H50.3691ZM47.6709 106.761C48.1807 106.761 48.6641 106.629 49.1211 106.365C49.5781 106.102 49.9092 105.759 50.1143 105.337V103.386H48.8398C46.8477 103.386 45.8516 103.969 45.8516 105.135C45.8516 105.645 46.0215 106.043 46.3613 106.33C46.7012 106.617 47.1377 106.761 47.6709 106.761ZM58.1035 106.849C58.6836 106.849 59.1904 106.673 59.624 106.321C60.0576 105.97 60.2978 105.53 60.3447 105.003H61.8828C61.8535 105.548 61.666 106.066 61.3203 106.559C60.9746 107.051 60.5117 107.443 59.9316 107.736C59.3574 108.029 58.748 108.176 58.1035 108.176C56.8086 108.176 55.7773 107.745 55.0098 106.884C54.248 106.017 53.8672 104.833 53.8672 103.333V103.061C53.8672 102.135 54.0371 101.312 54.377 100.591C54.7168 99.8701 55.2031 99.3105 55.8359 98.9121C56.4746 98.5137 57.2275 98.3145 58.0947 98.3145C59.1611 98.3145 60.0459 98.6338 60.749 99.2725C61.458 99.9111 61.8359 100.74 61.8828 101.76H60.3447C60.2978 101.145 60.0635 100.641 59.6416 100.248C59.2256 99.8496 58.71 99.6504 58.0947 99.6504C57.2686 99.6504 56.627 99.9492 56.1699 100.547C55.7187 101.139 55.4932 101.997 55.4932 103.122V103.43C55.4932 104.525 55.7187 105.369 56.1699 105.961C56.6211 106.553 57.2656 106.849 58.1035 106.849ZM65.917 96.1875V98.4902H67.6924V99.7471H65.917V105.645C65.917 106.025 65.9961 106.312 66.1543 106.506C66.3125 106.693 66.582 106.787 66.9629 106.787C67.1504 106.787 67.4082 106.752 67.7363 106.682V108C67.3086 108.117 66.8926 108.176 66.4883 108.176C65.7617 108.176 65.2139 107.956 64.8447 107.517C64.4756 107.077 64.291 106.453 64.291 105.645V99.7471H62.5596V98.4902H64.291V96.1875H65.917Z" fill="black"/>
</svg>
