<svg width="115" height="122" viewBox="0 0 115 122" fill="none" xmlns="http://www.w3.org/2000/svg">
<mask id="path-1-inside-1" fill="white">
<path d="M54.2369 61.6343C54.129 61.8177 54.183 61.7362 54.2369 61.6343V61.6343ZM99.0029 46.859C95.3889 46.8579 91.823 47.6423 88.5809 49.1517C87.5208 47.1307 86.4247 45.3645 86.245 44.0398C86.0293 42.4943 85.7957 41.5772 86.0473 39.7431C86.2989 37.9089 87.4309 35.3105 87.413 35.1237C87.395 34.9369 87.1614 34.0028 84.8434 33.9858C82.5254 33.9688 80.5308 34.4104 80.299 34.9878C79.8897 36.0431 79.5712 37.1278 79.3467 38.2316C78.9334 40.2186 74.7125 47.3175 72.3226 51.0198C71.532 49.5763 70.8671 48.3025 70.7234 47.2836C70.5078 45.7381 70.2742 44.821 70.5257 42.9868C70.7773 41.1527 71.9093 38.5543 71.8914 38.3674C71.8734 38.1806 71.6398 37.2466 69.3236 37.2296C67.0074 37.2126 65.0111 37.6542 64.7775 38.2316C64.5439 38.809 64.2923 40.1676 63.8251 41.4753C63.3579 42.783 57.7354 54.6033 56.2638 57.6772C55.5091 59.2396 54.8622 60.4964 54.395 61.3455C54.3231 61.4814 54.2692 61.5663 54.2333 61.6343C54.2872 61.5493 54.3231 61.4644 54.3231 61.4984C53.9278 62.2287 53.6942 62.6363 53.6942 62.6363V62.6532C53.3887 63.1967 53.0473 63.6892 52.8856 63.6892C52.7778 63.6892 52.5442 62.2626 52.9395 60.3096C53.784 56.1997 55.7786 49.814 55.7606 49.5933C55.7427 49.4744 56.138 48.3705 54.4489 47.7761C52.8137 47.2156 52.2207 48.1497 52.077 48.1497C51.9332 48.1497 51.8254 48.4894 51.8254 48.4894C51.8254 48.4894 53.6403 41.2885 48.3412 41.2885C45.035 41.2885 40.4349 44.7191 38.1744 47.827C36.7549 48.5573 33.6822 50.1367 30.4478 51.818C29.2079 52.4634 27.9321 53.1257 26.7282 53.7541C26.6383 53.6692 26.5665 53.5843 26.4766 53.4994C20.0455 47.0118 8.17164 42.4264 8.67477 33.7141C8.85446 30.5382 10.0224 22.1996 31.5079 12.0776C49.1175 3.7899 63.1962 6.06563 65.6202 11.1266C69.1062 18.3444 58.093 31.778 39.806 33.7141C32.8358 34.4444 29.172 31.8969 28.2555 30.9458C27.3032 29.9438 27.1594 29.8929 26.8001 30.0797C26.2071 30.3854 26.5844 31.2685 26.8001 31.795C27.3391 33.1367 29.5852 35.5143 33.4108 36.7031C36.771 37.7391 44.9433 38.3165 54.8244 34.6991C65.9257 30.6571 74.5669 19.3973 72.0333 9.97174C69.453 0.393287 52.6484 -2.74858 36.7585 2.5841C27.2906 5.75994 17.0519 10.753 9.68643 17.2575C0.93734 25.0018 -0.462442 31.744 0.112564 34.5632C2.15923 44.5663 16.7464 51.0878 22.5845 55.911C22.297 56.0638 22.0275 56.1997 21.7759 56.3355C18.8488 57.7112 7.72781 63.2137 4.94442 69.0219C1.79985 75.6113 5.46552 80.3326 7.87156 80.978C15.3808 82.948 23.0697 79.3986 27.2008 73.5734C31.3318 67.7482 30.8305 60.1397 28.9258 56.6752C28.9078 56.6243 28.8719 56.5903 28.8539 56.5393C29.6086 56.1148 30.3813 55.6902 31.1539 55.2656C32.6436 54.4334 34.0991 53.6692 35.3748 53.0069C34.6561 54.841 34.135 57.0488 33.8655 60.2416C33.542 63.9779 35.1772 68.8181 37.2975 70.7202C38.2319 71.5524 39.3622 71.5694 40.063 71.5694C42.5427 71.5694 43.6567 69.6333 44.8948 67.3236C46.4222 64.5044 47.7698 61.2267 47.7698 61.2267C47.7698 61.2267 46.0808 70.0918 50.6988 70.0918C52.3861 70.0918 54.0751 68.0369 54.8316 66.9839V67.0009C54.8316 67.0009 54.8676 66.933 54.9574 66.7971C55.1371 66.5424 55.227 66.3895 55.227 66.3895V66.3386C55.9098 65.2347 57.4012 62.7042 59.6455 58.5264C62.5565 53.1257 65.3399 46.3835 65.3399 46.3835C65.6089 47.8656 65.981 49.3293 66.454 50.7651C66.9571 52.3785 68.0173 54.1447 68.8618 55.86C68.179 56.7431 67.7657 57.2526 67.7657 57.2526C67.767 57.2657 67.7734 57.2778 67.7837 57.2866C67.2446 57.9659 66.6336 58.6962 66.0047 59.4095C63.7065 61.9909 60.9734 64.946 60.614 65.7951C60.1828 66.7971 60.2906 67.5444 61.1172 68.1218C61.7281 68.5634 62.8063 68.6313 63.9365 68.5464C66.0029 68.4105 67.4584 67.935 68.1592 67.6293C69.4511 67.1914 70.6722 66.5855 71.7872 65.8291C74.0333 64.2666 75.3989 62.0249 75.2731 59.0698C75.2013 57.4394 74.6442 55.8091 73.9614 54.2806C74.1591 54.0089 74.3747 53.7201 74.5723 53.4314C78.1284 48.5233 80.8776 43.1363 80.8776 43.1363C81.1466 44.6184 81.5188 46.0821 81.9917 47.5179C82.423 48.8936 83.2657 50.405 84.0384 51.8826C80.698 54.447 78.6315 57.4191 77.9128 59.3721C76.5831 62.9895 77.6253 64.6199 79.5839 64.9935C80.4644 65.1633 81.7222 64.7727 82.6566 64.3991C84.0443 63.9622 85.3527 63.3265 86.5361 62.514C88.7822 60.9515 90.9546 58.7607 90.8109 55.7887C90.757 54.447 90.3617 53.1054 89.8406 51.8146C92.6617 50.6938 96.3256 50.0824 100.997 50.5919C111.003 51.6958 112.961 57.6059 112.584 60.0684C112.207 62.531 110.104 63.9066 109.403 64.3142C108.703 64.7218 108.487 64.8746 108.541 65.1803C108.631 65.6219 108.954 65.6049 109.547 65.503C110.374 65.3671 114.792 63.499 114.99 58.9306C115.277 53.1563 109.403 46.8046 98.9975 46.8556L99.0029 46.859ZM21.8838 71.4335C18.5793 74.8471 13.9433 76.1378 11.9505 75.0509C9.81221 73.8757 10.6567 68.8521 14.7339 65.2143C17.2136 63.0065 20.4103 60.9685 22.5306 59.7118C23.0158 59.44 23.7166 59.0325 24.5791 58.5399C24.7228 58.455 24.7947 58.4211 24.7947 58.4211C24.9564 58.3192 25.1361 58.2342 25.3158 58.1323C26.8055 63.2952 25.3697 67.8467 21.8838 71.4301V71.4335ZM46.0268 55.911C44.8768 58.5773 42.4528 65.3705 40.9794 65.0139C39.7215 64.7082 38.9489 59.5284 40.7278 54.4334C41.6262 51.869 43.531 48.812 44.663 47.6232C46.4761 45.7041 48.4706 45.0927 48.9378 45.857C49.5667 46.859 46.7456 54.2466 46.0268 55.911ZM65.9724 64.912C65.4872 65.1498 65.038 65.3026 64.8224 65.1837C64.6607 65.0988 65.02 64.7761 65.02 64.7761C65.02 64.7761 67.5177 62.2457 68.506 61.0908C69.081 60.4115 69.7459 59.6133 70.4628 58.7302C70.4628 58.8151 70.4808 58.9 70.4808 59.0019C70.4574 62.0419 67.3686 64.0968 65.967 64.912H65.9724ZM81.3502 61.6003C80.9908 61.3625 81.0448 60.5643 82.2487 58.0848C82.7159 57.1168 83.7922 55.4864 85.6628 53.9239C85.8745 54.5154 85.9896 55.1339 86.0042 55.7581C85.9862 59.5793 83.0932 61.0059 81.352 61.6003H81.3502Z"/>
</mask>
<path d="M54.2369 61.6343C54.129 61.8177 54.183 61.7362 54.2369 61.6343V61.6343ZM99.0029 46.859C95.3889 46.8579 91.823 47.6423 88.5809 49.1517C87.5208 47.1307 86.4247 45.3645 86.245 44.0398C86.0293 42.4943 85.7957 41.5772 86.0473 39.7431C86.2989 37.9089 87.4309 35.3105 87.413 35.1237C87.395 34.9369 87.1614 34.0028 84.8434 33.9858C82.5254 33.9688 80.5308 34.4104 80.299 34.9878C79.8897 36.0431 79.5712 37.1278 79.3467 38.2316C78.9334 40.2186 74.7125 47.3175 72.3226 51.0198C71.532 49.5763 70.8671 48.3025 70.7234 47.2836C70.5078 45.7381 70.2742 44.821 70.5257 42.9868C70.7773 41.1527 71.9093 38.5543 71.8914 38.3674C71.8734 38.1806 71.6398 37.2466 69.3236 37.2296C67.0074 37.2126 65.0111 37.6542 64.7775 38.2316C64.5439 38.809 64.2923 40.1676 63.8251 41.4753C63.3579 42.783 57.7354 54.6033 56.2638 57.6772C55.5091 59.2396 54.8622 60.4964 54.395 61.3455C54.3231 61.4814 54.2692 61.5663 54.2333 61.6343C54.2872 61.5493 54.3231 61.4644 54.3231 61.4984C53.9278 62.2287 53.6942 62.6363 53.6942 62.6363V62.6532C53.3887 63.1967 53.0473 63.6892 52.8856 63.6892C52.7778 63.6892 52.5442 62.2626 52.9395 60.3096C53.784 56.1997 55.7786 49.814 55.7606 49.5933C55.7427 49.4744 56.138 48.3705 54.4489 47.7761C52.8137 47.2156 52.2207 48.1497 52.077 48.1497C51.9332 48.1497 51.8254 48.4894 51.8254 48.4894C51.8254 48.4894 53.6403 41.2885 48.3412 41.2885C45.035 41.2885 40.4349 44.7191 38.1744 47.827C36.7549 48.5573 33.6822 50.1367 30.4478 51.818C29.2079 52.4634 27.9321 53.1257 26.7282 53.7541C26.6383 53.6692 26.5665 53.5843 26.4766 53.4994C20.0455 47.0118 8.17164 42.4264 8.67477 33.7141C8.85446 30.5382 10.0224 22.1996 31.5079 12.0776C49.1175 3.7899 63.1962 6.06563 65.6202 11.1266C69.1062 18.3444 58.093 31.778 39.806 33.7141C32.8358 34.4444 29.172 31.8969 28.2555 30.9458C27.3032 29.9438 27.1594 29.8929 26.8001 30.0797C26.2071 30.3854 26.5844 31.2685 26.8001 31.795C27.3391 33.1367 29.5852 35.5143 33.4108 36.7031C36.771 37.7391 44.9433 38.3165 54.8244 34.6991C65.9257 30.6571 74.5669 19.3973 72.0333 9.97174C69.453 0.393287 52.6484 -2.74858 36.7585 2.5841C27.2906 5.75994 17.0519 10.753 9.68643 17.2575C0.93734 25.0018 -0.462442 31.744 0.112564 34.5632C2.15923 44.5663 16.7464 51.0878 22.5845 55.911C22.297 56.0638 22.0275 56.1997 21.7759 56.3355C18.8488 57.7112 7.72781 63.2137 4.94442 69.0219C1.79985 75.6113 5.46552 80.3326 7.87156 80.978C15.3808 82.948 23.0697 79.3986 27.2008 73.5734C31.3318 67.7482 30.8305 60.1397 28.9258 56.6752C28.9078 56.6243 28.8719 56.5903 28.8539 56.5393C29.6086 56.1148 30.3813 55.6902 31.1539 55.2656C32.6436 54.4334 34.0991 53.6692 35.3748 53.0069C34.6561 54.841 34.135 57.0488 33.8655 60.2416C33.542 63.9779 35.1772 68.8181 37.2975 70.7202C38.2319 71.5524 39.3622 71.5694 40.063 71.5694C42.5427 71.5694 43.6567 69.6333 44.8948 67.3236C46.4222 64.5044 47.7698 61.2267 47.7698 61.2267C47.7698 61.2267 46.0808 70.0918 50.6988 70.0918C52.3861 70.0918 54.0751 68.0369 54.8316 66.9839V67.0009C54.8316 67.0009 54.8676 66.933 54.9574 66.7971C55.1371 66.5424 55.227 66.3895 55.227 66.3895V66.3386C55.9098 65.2347 57.4012 62.7042 59.6455 58.5264C62.5565 53.1257 65.3399 46.3835 65.3399 46.3835C65.6089 47.8656 65.981 49.3293 66.454 50.7651C66.9571 52.3785 68.0173 54.1447 68.8618 55.86C68.179 56.7431 67.7657 57.2526 67.7657 57.2526C67.767 57.2657 67.7734 57.2778 67.7837 57.2866C67.2446 57.9659 66.6336 58.6962 66.0047 59.4095C63.7065 61.9909 60.9734 64.946 60.614 65.7951C60.1828 66.7971 60.2906 67.5444 61.1172 68.1218C61.7281 68.5634 62.8063 68.6313 63.9365 68.5464C66.0029 68.4105 67.4584 67.935 68.1592 67.6293C69.4511 67.1914 70.6722 66.5855 71.7872 65.8291C74.0333 64.2666 75.3989 62.0249 75.2731 59.0698C75.2013 57.4394 74.6442 55.8091 73.9614 54.2806C74.1591 54.0089 74.3747 53.7201 74.5723 53.4314C78.1284 48.5233 80.8776 43.1363 80.8776 43.1363C81.1466 44.6184 81.5188 46.0821 81.9917 47.5179C82.423 48.8936 83.2657 50.405 84.0384 51.8826C80.698 54.447 78.6315 57.4191 77.9128 59.3721C76.5831 62.9895 77.6253 64.6199 79.5839 64.9935C80.4644 65.1633 81.7222 64.7727 82.6566 64.3991C84.0443 63.9622 85.3527 63.3265 86.5361 62.514C88.7822 60.9515 90.9546 58.7607 90.8109 55.7887C90.757 54.447 90.3617 53.1054 89.8406 51.8146C92.6617 50.6938 96.3256 50.0824 100.997 50.5919C111.003 51.6958 112.961 57.6059 112.584 60.0684C112.207 62.531 110.104 63.9066 109.403 64.3142C108.703 64.7218 108.487 64.8746 108.541 65.1803C108.631 65.6219 108.954 65.6049 109.547 65.503C110.374 65.3671 114.792 63.499 114.99 58.9306C115.277 53.1563 109.403 46.8046 98.9975 46.8556L99.0029 46.859ZM21.8838 71.4335C18.5793 74.8471 13.9433 76.1378 11.9505 75.0509C9.81221 73.8757 10.6567 68.8521 14.7339 65.2143C17.2136 63.0065 20.4103 60.9685 22.5306 59.7118C23.0158 59.44 23.7166 59.0325 24.5791 58.5399C24.7228 58.455 24.7947 58.4211 24.7947 58.4211C24.9564 58.3192 25.1361 58.2342 25.3158 58.1323C26.8055 63.2952 25.3697 67.8467 21.8838 71.4301V71.4335ZM46.0268 55.911C44.8768 58.5773 42.4528 65.3705 40.9794 65.0139C39.7215 64.7082 38.9489 59.5284 40.7278 54.4334C41.6262 51.869 43.531 48.812 44.663 47.6232C46.4761 45.7041 48.4706 45.0927 48.9378 45.857C49.5667 46.859 46.7456 54.2466 46.0268 55.911ZM65.9724 64.912C65.4872 65.1498 65.038 65.3026 64.8224 65.1837C64.6607 65.0988 65.02 64.7761 65.02 64.7761C65.02 64.7761 67.5177 62.2457 68.506 61.0908C69.081 60.4115 69.7459 59.6133 70.4628 58.7302C70.4628 58.8151 70.4808 58.9 70.4808 59.0019C70.4574 62.0419 67.3686 64.0968 65.967 64.912H65.9724ZM81.3502 61.6003C80.9908 61.3625 81.0448 60.5643 82.2487 58.0848C82.7159 57.1168 83.7922 55.4864 85.6628 53.9239C85.8745 54.5154 85.9896 55.1339 86.0042 55.7581C85.9862 59.5793 83.0932 61.0059 81.352 61.6003H81.3502Z" fill="#FF36DF" stroke="black" stroke-width="2" mask="url(#path-1-inside-1)"/>
<path d="M44.2354 115.296C42.7881 114.88 41.7334 114.37 41.0713 113.767C40.415 113.157 40.0869 112.407 40.0869 111.517C40.0869 110.509 40.4883 109.677 41.291 109.021C42.0996 108.358 43.1484 108.027 44.4375 108.027C45.3164 108.027 46.0986 108.197 46.7842 108.537C47.4756 108.877 48.0088 109.346 48.3838 109.943C48.7646 110.541 48.9551 111.194 48.9551 111.903H47.2588C47.2588 111.13 47.0127 110.523 46.5205 110.084C46.0283 109.639 45.334 109.416 44.4375 109.416C43.6055 109.416 42.9551 109.601 42.4863 109.97C42.0234 110.333 41.792 110.84 41.792 111.49C41.792 112.012 42.0117 112.454 42.4512 112.817C42.8965 113.175 43.6494 113.503 44.71 113.802C45.7764 114.101 46.6084 114.432 47.2061 114.795C47.8096 115.152 48.2549 115.571 48.542 116.052C48.835 116.532 48.9814 117.098 48.9814 117.748C48.9814 118.785 48.5771 119.617 47.7686 120.244C46.96 120.865 45.8789 121.176 44.5254 121.176C43.6465 121.176 42.8262 121.009 42.0645 120.675C41.3027 120.335 40.7139 119.872 40.2979 119.286C39.8877 118.7 39.6826 118.035 39.6826 117.291H41.3789C41.3789 118.064 41.6631 118.677 42.2314 119.128C42.8057 119.573 43.5703 119.796 44.5254 119.796C45.416 119.796 46.0986 119.614 46.5732 119.251C47.0478 118.888 47.2852 118.393 47.2852 117.766C47.2852 117.139 47.0654 116.655 46.626 116.315C46.1865 115.97 45.3896 115.63 44.2354 115.296ZM56.7686 121C56.6748 120.812 56.5986 120.479 56.54 119.998C55.7842 120.783 54.8818 121.176 53.833 121.176C52.8955 121.176 52.125 120.912 51.5215 120.385C50.9238 119.852 50.625 119.178 50.625 118.363C50.625 117.373 51 116.605 51.75 116.061C52.5059 115.51 53.5664 115.234 54.9316 115.234H56.5137V114.487C56.5137 113.919 56.3437 113.468 56.0039 113.134C55.6641 112.794 55.1631 112.624 54.501 112.624C53.9209 112.624 53.4346 112.771 53.042 113.063C52.6494 113.356 52.4531 113.711 52.4531 114.127H50.8184C50.8184 113.652 50.9853 113.195 51.3193 112.756C51.6592 112.311 52.1162 111.959 52.6904 111.701C53.2705 111.443 53.9062 111.314 54.5977 111.314C55.6934 111.314 56.5518 111.59 57.1728 112.141C57.7939 112.686 58.1162 113.438 58.1396 114.399V118.776C58.1396 119.649 58.251 120.344 58.4736 120.859V121H56.7686ZM54.0703 119.761C54.5801 119.761 55.0635 119.629 55.5205 119.365C55.9775 119.102 56.3086 118.759 56.5137 118.337V116.386H55.2393C53.2471 116.386 52.251 116.969 52.251 118.135C52.251 118.645 52.4209 119.043 52.7607 119.33C53.1006 119.617 53.5371 119.761 54.0703 119.761ZM66.2256 118.478C66.2256 118.038 66.0586 117.698 65.7246 117.458C65.3965 117.212 64.8193 117.001 63.9932 116.825C63.1728 116.649 62.5195 116.438 62.0332 116.192C61.5527 115.946 61.1953 115.653 60.9609 115.313C60.7324 114.974 60.6182 114.569 60.6182 114.101C60.6182 113.321 60.9463 112.662 61.6025 112.123C62.2646 111.584 63.1084 111.314 64.1338 111.314C65.2119 111.314 66.085 111.593 66.7529 112.149C67.4268 112.706 67.7637 113.418 67.7637 114.285H66.1289C66.1289 113.84 65.9385 113.456 65.5576 113.134C65.1826 112.812 64.708 112.65 64.1338 112.65C63.542 112.65 63.0791 112.779 62.7451 113.037C62.4111 113.295 62.2441 113.632 62.2441 114.048C62.2441 114.44 62.3994 114.736 62.71 114.936C63.0205 115.135 63.5801 115.325 64.3887 115.507C65.2031 115.688 65.8623 115.905 66.3662 116.157C66.8701 116.409 67.2422 116.714 67.4824 117.071C67.7285 117.423 67.8516 117.854 67.8516 118.363C67.8516 119.213 67.5117 119.896 66.832 120.411C66.1523 120.921 65.2705 121.176 64.1865 121.176C63.4248 121.176 62.751 121.041 62.165 120.771C61.5791 120.502 61.1191 120.127 60.7852 119.646C60.457 119.16 60.293 118.636 60.293 118.073H61.9189C61.9482 118.618 62.165 119.052 62.5693 119.374C62.9795 119.69 63.5186 119.849 64.1865 119.849C64.8018 119.849 65.2939 119.726 65.6631 119.479C66.0381 119.228 66.2256 118.894 66.2256 118.478ZM75.5068 118.478C75.5068 118.038 75.3398 117.698 75.0059 117.458C74.6777 117.212 74.1006 117.001 73.2744 116.825C72.4541 116.649 71.8008 116.438 71.3145 116.192C70.834 115.946 70.4766 115.653 70.2422 115.313C70.0137 114.974 69.8994 114.569 69.8994 114.101C69.8994 113.321 70.2275 112.662 70.8838 112.123C71.5459 111.584 72.3896 111.314 73.415 111.314C74.4932 111.314 75.3662 111.593 76.0342 112.149C76.708 112.706 77.0449 113.418 77.0449 114.285H75.4102C75.4102 113.84 75.2197 113.456 74.8389 113.134C74.4639 112.812 73.9893 112.65 73.415 112.65C72.8232 112.65 72.3603 112.779 72.0264 113.037C71.6924 113.295 71.5254 113.632 71.5254 114.048C71.5254 114.44 71.6807 114.736 71.9912 114.936C72.3018 115.135 72.8613 115.325 73.6699 115.507C74.4844 115.688 75.1436 115.905 75.6475 116.157C76.1514 116.409 76.5234 116.714 76.7637 117.071C77.0098 117.423 77.1328 117.854 77.1328 118.363C77.1328 119.213 76.793 119.896 76.1133 120.411C75.4336 120.921 74.5518 121.176 73.4678 121.176C72.7061 121.176 72.0322 121.041 71.4463 120.771C70.8603 120.502 70.4004 120.127 70.0664 119.646C69.7383 119.16 69.5742 118.636 69.5742 118.073H71.2002C71.2295 118.618 71.4463 119.052 71.8506 119.374C72.2607 119.69 72.7998 119.849 73.4678 119.849C74.083 119.849 74.5752 119.726 74.9443 119.479C75.3193 119.228 75.5068 118.894 75.5068 118.478Z" fill="black"/>
</svg>
